<?xml version="1.0" encoding="utf-8"?>
<!-- Generator: Adobe Illustrator 16.0.0, SVG Export Plug-In . SVG Version: 6.00 Build 0)  -->
<!DOCTYPE svg PUBLIC "-//W3C//DTD SVG 1.1//EN" "http://www.w3.org/Graphics/SVG/1.1/DTD/svg11.dtd">
<svg version="1.1" id="Layer_1" xmlns="http://www.w3.org/2000/svg" xmlns:xlink="http://www.w3.org/1999/xlink" x="0px" y="0px"
	 width="50px" height="50px" viewBox="0 0 50 50" enable-background="new 0 0 50 50" xml:space="preserve">
<path d="M25.001,5C13.954,5,5,13.956,5,24.999C5,36.044,13.954,45,25.001,45C36.046,45,45,36.044,45,24.999S36.046,5,25.001,5z
	 M25.001,39.284c-7.891,0-14.287-6.396-14.287-14.287c0-7.888,6.396-14.284,14.287-14.284c7.888,0,14.284,6.396,14.284,14.284
	C39.285,32.889,32.89,39.284,25.001,39.284z"/>
<path d="M20.947,29.235c2.232,2.229,5.85,2.229,8.082,0c2.229-2.229,4.037-12.121,4.037-12.121s-9.889,1.811-12.117,4.041
	C18.717,23.386,18.717,27.004,20.947,29.235z M25.995,24.185c0.56,0.558,0.56,1.462,0.004,2.018c-0.56,0.561-1.462,0.558-2.021,0
	c-0.559-0.559-0.559-1.46,0-2.021C24.534,23.627,25.439,23.628,25.995,24.185z"/>
</svg>
