<?xml version="1.0" encoding="utf-8"?>
<!-- Generator: Adobe Illustrator 16.0.0, SVG Export Plug-In . SVG Version: 6.00 Build 0)  -->
<!DOCTYPE svg PUBLIC "-//W3C//DTD SVG 1.1//EN" "http://www.w3.org/Graphics/SVG/1.1/DTD/svg11.dtd">
<svg version="1.1" id="Layer_1" xmlns="http://www.w3.org/2000/svg" xmlns:xlink="http://www.w3.org/1999/xlink" x="0px" y="0px"
	 width="50px" height="50px" viewBox="0 0 50 50" enable-background="new 0 0 50 50" xml:space="preserve">
<g>
	<g>
		<path d="M25.001,5C13.954,5,5,13.956,5,24.999C5,36.044,13.954,45,25.001,45C36.046,45,45,36.044,45,24.999
			C45,13.953,36.046,5,25.001,5z M25.001,39.284c-7.891,0-14.286-6.396-14.286-14.287c0-7.889,6.396-14.284,14.286-14.284
			c7.889,0,14.284,6.396,14.284,14.284C39.285,32.889,32.89,39.284,25.001,39.284z M25.001,19.285c-3.155,0-5.714,2.558-5.714,5.714
			c0,3.154,2.559,5.714,5.714,5.714c3.153,0,11.427-5.714,11.427-5.714S28.154,19.285,25.001,19.285z M25.001,26.428
			c-0.789,0-1.429-0.64-1.429-1.429s0.64-1.429,1.429-1.429c0.787,0,1.427,0.64,1.427,1.429
			C26.428,25.787,25.788,26.428,25.001,26.428z"/>
	</g>
</g>
</svg>
