<?xml version="1.0" encoding="utf-8"?>
<!-- Generator: Adobe Illustrator 16.0.0, SVG Export Plug-In . SVG Version: 6.00 Build 0)  -->
<!DOCTYPE svg PUBLIC "-//W3C//DTD SVG 1.1//EN" "http://www.w3.org/Graphics/SVG/1.1/DTD/svg11.dtd">
<svg version="1.1" id="Layer_1" xmlns="http://www.w3.org/2000/svg" xmlns:xlink="http://www.w3.org/1999/xlink" x="0px" y="0px"
	 width="50px" height="50px" viewBox="0 0 50 50" enable-background="new 0 0 50 50" xml:space="preserve">
<path d="M25.001,5C13.954,5,5,13.956,5,24.999C5,36.044,13.954,45,25.001,45C36.046,45,45,36.044,45,24.999
	C45,13.953,36.046,5,25.001,5z M25.001,39.284c-7.891,0-14.286-6.396-14.286-14.287c0-7.889,6.396-14.284,14.286-14.284
	c7.889,0,14.284,6.396,14.284,14.284C39.285,32.889,32.89,39.284,25.001,39.284z"/>
<path d="M29.022,21.155c-2.232-2.229-5.849-2.228-8.08,0c-2.23,2.231-4.037,12.121-4.037,12.121s9.889-1.812,12.117-4.039
	C31.256,27.004,31.255,23.387,29.022,21.155z M23.976,26.205c-0.56-0.558-0.56-1.462-0.004-2.017c0.56-0.562,1.462-0.559,2.021,0
	c0.562,0.558,0.563,1.462,0,2.02C25.439,26.764,24.531,26.764,23.976,26.205z"/>
</svg>
