<?xml version="1.0" encoding="utf-8"?>
<!-- Generator: Adobe Illustrator 16.0.0, SVG Export Plug-In . SVG Version: 6.00 Build 0)  -->
<!DOCTYPE svg PUBLIC "-//W3C//DTD SVG 1.1//EN" "http://www.w3.org/Graphics/SVG/1.1/DTD/svg11.dtd">
<svg version="1.1" id="Layer_1" xmlns="http://www.w3.org/2000/svg" xmlns:xlink="http://www.w3.org/1999/xlink" x="0px" y="0px"
	 width="50px" height="50px" viewBox="25 25 50 50" enable-background="new 25 25 50 50" xml:space="preserve">
<path d="M50,29.869c-11.046,0-20.001,8.955-20.001,19.999c0,11.045,8.955,20.001,20.001,20.001c11.044,0,19.999-8.956,19.999-20.001
	C69.999,38.823,61.045,29.869,50,29.869z M50,64.153c-7.891,0-14.287-6.396-14.287-14.287c0-7.888,6.396-14.284,14.287-14.284
	c7.888,0,14.284,6.396,14.284,14.284C64.284,57.758,57.889,64.153,50,64.153z"/>
<path d="M54.024,54.104c2.229-2.23,2.229-5.849,0-8.081c-2.232-2.231-12.122-4.037-12.122-4.037s1.812,9.887,4.041,12.117
	C48.175,56.334,51.792,56.334,54.024,54.104z M48.974,49.056c0.558-0.56,1.461-0.56,2.018-0.004c0.561,0.56,0.558,1.461,0,2.021
	c-0.561,0.558-1.462,0.561-2.022,0C48.416,50.517,48.416,49.612,48.974,49.056z"/>
</svg>
