<?xml version="1.0" encoding="utf-8"?>
<!-- Generator: Adobe Illustrator 16.0.0, SVG Export Plug-In . SVG Version: 6.00 Build 0)  -->
<!DOCTYPE svg PUBLIC "-//W3C//DTD SVG 1.1//EN" "http://www.w3.org/Graphics/SVG/1.1/DTD/svg11.dtd">
<svg version="1.1" id="Layer_1" xmlns="http://www.w3.org/2000/svg" xmlns:xlink="http://www.w3.org/1999/xlink" x="0px" y="0px"
	 width="50px" height="50px" viewBox="0 0 50 50" enable-background="new 0 0 50 50" xml:space="preserve">
<g>
	<g>
		<path d="M25,5C13.955,5,5,13.956,5,24.999C5,36.044,13.955,45,25,45s20-8.956,20-20.001S36.045,5,25,5z M25,39.284
			c-7.889,0-14.285-6.396-14.285-14.287c0-7.888,6.396-14.284,14.285-14.284c7.889,0,14.286,6.396,14.286,14.284
			C39.286,32.889,32.889,39.284,25,39.284z M25,19.285c-3.155,0-5.714,2.558-5.714,5.713c0,3.155,5.714,11.429,5.714,11.429
			s5.715-8.273,5.715-11.429S28.156,19.285,25,19.285z M25,26.428c-0.789,0-1.429-0.64-1.429-1.429c0-0.788,0.64-1.429,1.429-1.429
			c0.79,0,1.429,0.641,1.429,1.429C26.429,25.787,25.79,26.428,25,26.428z"/>
	</g>
</g>
</svg>
