<?xml version="1.0" encoding="utf-8"?>
<!-- Generator: Adobe Illustrator 16.0.0, SVG Export Plug-In . SVG Version: 6.00 Build 0)  -->
<!DOCTYPE svg PUBLIC "-//W3C//DTD SVG 1.1//EN" "http://www.w3.org/Graphics/SVG/1.1/DTD/svg11.dtd">
<svg version="1.1" id="Layer_1" xmlns="http://www.w3.org/2000/svg" xmlns:xlink="http://www.w3.org/1999/xlink" x="0px" y="0px"
	 width="50px" height="50px" viewBox="0 0 50 50" enable-background="new 0 0 50 50" xml:space="preserve">
<g>
	<g>
		<path d="M25,5C13.956,5,5,13.955,5,25c0,11.045,8.956,20,20,20s19.999-8.954,19.999-20C44.999,13.955,36.045,5,25,5z M25,39.284
			c-7.889,0-14.286-6.396-14.286-14.285c0-7.889,6.397-14.285,14.286-14.285c7.888,0,14.287,6.396,14.287,14.285
			C39.287,32.889,32.889,39.284,25,39.284z M19.286,25c0,3.157,2.559,5.715,5.715,5.715s5.714-2.559,5.714-5.715
			c0-3.156-5.714-11.429-5.714-11.429S19.286,21.843,19.286,25z M26.429,25c0,0.791-0.639,1.429-1.428,1.429S23.572,25.79,23.572,25
			c0-0.789,0.639-1.429,1.429-1.429S26.429,24.211,26.429,25z"/>
	</g>
</g>
</svg>
