<?xml version="1.0" encoding="utf-8"?>
<!-- Generator: Adobe Illustrator 16.0.0, SVG Export Plug-In . SVG Version: 6.00 Build 0)  -->
<!DOCTYPE svg PUBLIC "-//W3C//DTD SVG 1.1//EN" "http://www.w3.org/Graphics/SVG/1.1/DTD/svg11.dtd">
<svg version="1.1" id="Layer_1" xmlns="http://www.w3.org/2000/svg" xmlns:xlink="http://www.w3.org/1999/xlink" x="0px" y="0px"
	 width="50px" height="50px" viewBox="0 0 50 50" enable-background="new 0 0 50 50" xml:space="preserve">
<path d="M25.001,5C13.955,5,5,13.956,5,24.999C5,36.045,13.955,45,25.001,45C36.047,45,45,36.045,45,24.999
	C45,13.954,36.047,5,25.001,5z M25.001,39.284c-7.891,0-14.287-6.396-14.287-14.287c0-7.888,6.396-14.284,14.287-14.284
	c7.888,0,14.286,6.395,14.286,14.284C39.287,32.889,32.891,39.284,25.001,39.284z"/>
<path d="M20.964,21.158c-2.229,2.23-2.226,5.849,0,8.078c2.229,2.231,12.122,4.04,12.122,4.04s-1.809-9.89-4.038-12.118
	C26.816,18.923,23.197,18.925,20.964,21.158z M26.016,26.203c-0.558,0.561-1.461,0.561-2.018,0.004
	c-0.561-0.558-0.559-1.461,0-2.021c0.557-0.558,1.461-0.559,2.02,0C26.575,24.74,26.575,25.649,26.016,26.203z"/>
</svg>
