<?xml version="1.0" encoding="utf-8"?>
<!-- Generator: Adobe Illustrator 16.0.0, SVG Export Plug-In . SVG Version: 6.00 Build 0)  -->
<!DOCTYPE svg PUBLIC "-//W3C//DTD SVG 1.1//EN" "http://www.w3.org/Graphics/SVG/1.1/DTD/svg11.dtd">
<svg version="1.1" id="Layer_1" xmlns="http://www.w3.org/2000/svg" xmlns:xlink="http://www.w3.org/1999/xlink" x="0px" y="0px"
	 width="50px" height="50px" viewBox="0 0 50 50" enable-background="new 0 0 50 50" xml:space="preserve">
<g>
	<g>
		<path d="M25,5C13.955,5,5,13.955,5,25s8.955,20,20,20s20-8.955,20-20C45,13.954,36.045,5,25,5z M25,39.285
			c-7.889,0-14.286-6.399-14.286-14.288S17.111,10.712,25,10.712c7.889,0,14.286,6.396,14.286,14.285
			C39.286,32.889,32.889,39.285,25,39.285z M25,19.285C21.844,19.285,13.571,25,13.571,25S21.844,30.715,25,30.715
			s5.715-2.559,5.715-5.715S28.156,19.285,25,19.285z M25,26.429c-0.789,0-1.429-0.639-1.429-1.429c0-0.79,0.64-1.429,1.429-1.429
			c0.79,0,1.429,0.639,1.429,1.429C26.429,25.79,25.79,26.429,25,26.429z"/>
	</g>
</g>
</svg>
