<?xml version="1.0" encoding="utf-8"?>
<!-- Generator: Adobe Illustrator 16.0.0, SVG Export Plug-In . SVG Version: 6.00 Build 0)  -->
<!DOCTYPE svg PUBLIC "-//W3C//DTD SVG 1.1//EN" "http://www.w3.org/Graphics/SVG/1.1/DTD/svg11.dtd">
<svg version="1.1" id="Layer_1" xmlns="http://www.w3.org/2000/svg" xmlns:xlink="http://www.w3.org/1999/xlink" x="0px" y="0px"
	 width="50px" height="50px" viewBox="25 25 50 50" enable-background="new 25 25 50 50" xml:space="preserve">
<path d="M66.112,48.504c-0.891,0.889-2.335,0.889-3.223,0c-0.889-0.89-0.889-2.333,0-3.222l3.223-3.222
	c0.888-0.89,2.332-0.89,3.222,0c0.889,0.889,0.889,2.333,0,3.222L66.112,48.504z M57.885,56.836
	c-1.577-2.722-4.513-4.558-7.884-4.558s-6.309,1.836-7.884,4.558h-4.991c1.877-5.308,6.924-9.115,12.875-9.115
	c5.948,0,10.997,3.807,12.876,9.115H57.885z M50.001,43.166c-1.258,0-2.279-1.021-2.279-2.279V36.33
	c0-1.258,1.021-2.278,2.279-2.278c1.258,0,2.278,1.02,2.278,2.278v4.557C52.279,42.145,51.259,43.166,50.001,43.166z M33.89,48.504
	l-3.222-3.222c-0.89-0.89-0.89-2.333,0-3.222c0.89-0.89,2.332-0.89,3.222,0l3.222,3.222c0.89,0.889,0.89,2.332,0,3.222
	C36.222,49.393,34.781,49.393,33.89,48.504z M38.607,61.392h22.785c1.259,0,2.278,1.021,2.278,2.278c0,1.26-1.02,2.278-2.278,2.278
	H38.607c-1.258,0-2.278-1.019-2.278-2.278C36.329,62.412,37.349,61.392,38.607,61.392z"/>
</svg>
