<?xml version="1.0" encoding="utf-8"?>
<!-- Generator: Adobe Illustrator 16.0.0, SVG Export Plug-In . SVG Version: 6.00 Build 0)  -->
<!DOCTYPE svg PUBLIC "-//W3C//DTD SVG 1.1//EN" "http://www.w3.org/Graphics/SVG/1.1/DTD/svg11.dtd">
<svg version="1.1" id="Layer_1" xmlns="http://www.w3.org/2000/svg" xmlns:xlink="http://www.w3.org/1999/xlink" x="0px" y="0px"
	 width="50px" height="50px" viewBox="25 25 50 50" enable-background="new 25 25 50 50" xml:space="preserve">
<path d="M68.333,56.668H65c-0.92,0-1.667-0.748-1.667-1.667c0-0.922,0.747-1.667,1.667-1.667h3.333c0.921,0,1.667,0.745,1.667,1.667
	C70,55.92,69.255,56.668,68.333,56.668z M61.785,45.572c-0.651,0.651-1.707,0.651-2.356,0c-0.65-0.65-0.65-1.706,0-2.357
	l2.356-2.356c0.65-0.65,1.706-0.65,2.357,0c0.65,0.65,0.65,1.706,0,2.356L61.785,45.572z M59.419,58.333h-3.65
	c0.568-0.98,0.898-2.116,0.898-3.332c0-3.683-2.985-6.668-6.667-6.668c-3.681,0-6.667,2.985-6.667,6.668
	c0,1.216,0.33,2.352,0.899,3.332h-3.651C40.211,57.289,40,56.171,40,55.001C40,49.478,44.478,45,50,45c5.523,0,10,4.477,10,10.001
	C60,56.171,59.789,57.289,59.419,58.333z M50,41.667c-0.92,0-1.666-0.747-1.666-1.667v-3.333C48.334,35.747,49.08,35,50,35
	s1.667,0.747,1.667,1.667V40C51.667,40.92,50.92,41.667,50,41.667z M38.215,45.572l-2.357-2.357c-0.651-0.651-0.651-1.706,0-2.356
	c0.65-0.65,1.706-0.65,2.357,0l2.357,2.356c0.65,0.651,0.65,1.707,0,2.357C39.921,46.223,38.866,46.223,38.215,45.572z
	 M36.667,55.001c0,0.919-0.747,1.667-1.666,1.667h-3.333c-0.92,0-1.667-0.748-1.667-1.667c0-0.922,0.747-1.667,1.667-1.667H35
	C35.92,53.334,36.667,54.079,36.667,55.001z M41.667,61.666h16.667c0.92,0,1.666,0.748,1.666,1.667C60,64.255,59.254,65,58.334,65
	H41.667C40.747,65,40,64.255,40,63.333C40,62.414,40.747,61.666,41.667,61.666z"/>
</svg>
