<?xml version="1.0" encoding="utf-8"?>
<!-- Generator: Adobe Illustrator 16.0.0, SVG Export Plug-In . SVG Version: 6.00 Build 0)  -->
<!DOCTYPE svg PUBLIC "-//W3C//DTD SVG 1.1//EN" "http://www.w3.org/Graphics/SVG/1.1/DTD/svg11.dtd">
<svg version="1.1" id="Layer_1" xmlns="http://www.w3.org/2000/svg" xmlns:xlink="http://www.w3.org/1999/xlink" x="0px" y="0px"
	 width="50px" height="50px" viewBox="25 25 50 50" enable-background="new 25 25 50 50" xml:space="preserve">
<g>
	<g>
		<path d="M40.572,43.214l-2.357-2.356c-0.65-0.65-1.706-0.65-2.356,0c-0.651,0.651-0.651,1.706,0,2.356l2.356,2.357
			c0.651,0.65,1.707,0.65,2.357,0C41.223,44.92,41.223,43.866,40.572,43.214z M68.333,53.332H65c-0.92,0-1.666,0.747-1.666,1.667
			S64.08,56.667,65,56.667h3.333c0.921,0,1.667-0.748,1.667-1.668S69.255,53.332,68.333,53.332z M35,53.332h-3.333
			c-0.92,0-1.667,0.747-1.667,1.667s0.747,1.668,1.667,1.668H35c0.92,0,1.667-0.748,1.667-1.668S35.919,53.332,35,53.332z
			 M58.334,61.667H41.667c-0.92,0-1.666,0.746-1.666,1.667c0,0.92,0.747,1.665,1.666,1.665h16.667c0.92,0,1.666-0.745,1.666-1.665
			C60,62.413,59.254,61.667,58.334,61.667z M64.143,40.857c-0.649-0.65-1.707-0.65-2.357,0l-2.356,2.356
			c-0.65,0.651-0.65,1.707,0,2.357c0.65,0.65,1.707,0.65,2.356,0l2.357-2.357C64.793,42.563,64.793,41.508,64.143,40.857z
			 M50.001,41.667c0.92,0,1.666-0.747,1.666-1.667v-3.333c0-0.92-0.747-1.667-1.666-1.667c-0.921,0-1.667,0.747-1.667,1.667V40
			C48.334,40.919,49.08,41.667,50.001,41.667z M50.001,45c-5.523,0-10,4.477-10,9.999c0,1.171,0.211,2.291,0.581,3.334h3.651
			c-0.57-0.981-0.899-2.117-0.899-3.334c0-3.682,2.985-6.666,6.667-6.666c3.681,0,6.666,2.984,6.666,6.666
			c0,1.217-0.33,2.353-0.898,3.334h3.65C59.789,57.29,60,56.17,60,54.999C60,49.477,55.523,45,50.001,45z M50.001,58.542
			c0.459,0,0.832-0.373,0.832-0.834v-3.191l2.114,2.114c0.324,0.325,0.852,0.325,1.179,0c0.324-0.325,0.324-0.854,0-1.179
			l-3.536-3.535c-0.326-0.326-0.854-0.326-1.178,0l-3.536,3.535c-0.326,0.325-0.326,0.854,0,1.179c0.326,0.325,0.853,0.325,1.179,0
			l2.113-2.114v3.191C49.167,58.169,49.54,58.542,50.001,58.542z"/>
	</g>
</g>
</svg>
