<?xml version="1.0" encoding="utf-8"?>
<!-- Generator: Adobe Illustrator 16.0.0, SVG Export Plug-In . SVG Version: 6.00 Build 0)  -->
<!DOCTYPE svg PUBLIC "-//W3C//DTD SVG 1.1//EN" "http://www.w3.org/Graphics/SVG/1.1/DTD/svg11.dtd">
<svg version="1.1" id="Layer_1" xmlns="http://www.w3.org/2000/svg" xmlns:xlink="http://www.w3.org/1999/xlink" x="0px" y="0px"
	 width="50px" height="50px" viewBox="25 25 50 50" enable-background="new 25 25 50 50" xml:space="preserve">
<path d="M68.334,56.668H65c-0.92,0-1.666-0.747-1.666-1.667S64.08,53.334,65,53.334h3.334c0.92,0,1.666,0.747,1.666,1.667
	S69.255,56.668,68.334,56.668z M61.787,45.573c-0.651,0.651-1.708,0.651-2.357,0c-0.651-0.65-0.651-1.706,0-2.357l2.357-2.356
	c0.649-0.65,1.706-0.65,2.355,0c0.651,0.65,0.651,1.706,0,2.356L61.787,45.573z M59.419,58.335h-3.65
	c0.568-0.982,0.898-2.118,0.898-3.334c0-3.683-2.985-6.667-6.666-6.667c-3.682,0-6.667,2.984-6.667,6.667
	c0,1.216,0.331,2.352,0.9,3.334h-3.652C40.212,57.291,40,56.171,40,55.001c0-5.523,4.477-10,10-10c5.522,0,9.999,4.477,9.999,10
	C60,56.171,59.789,57.291,59.419,58.335z M50.001,41.668c-0.921,0-1.667-0.747-1.667-1.667v-3.333c0-0.92,0.746-1.667,1.667-1.667
	c0.92,0,1.667,0.747,1.667,1.667v3.333C51.668,40.921,50.92,41.668,50.001,41.668z M38.215,45.573l-2.357-2.357
	c-0.651-0.651-0.651-1.706,0-2.356s1.706-0.65,2.357,0l2.357,2.356c0.65,0.651,0.65,1.707,0,2.357
	C39.921,46.224,38.867,46.224,38.215,45.573z M36.667,55.001c0,0.92-0.747,1.667-1.667,1.667h-3.333
	c-0.92,0-1.667-0.747-1.667-1.667s0.747-1.667,1.667-1.667H35C35.921,53.334,36.667,54.081,36.667,55.001z M50.001,51.667
	c0.459,0,0.833,0.374,0.833,0.833v3.191l2.113-2.113c0.325-0.325,0.852-0.325,1.179,0c0.325,0.325,0.325,0.853,0,1.179l-3.536,3.535
	c-0.326,0.326-0.853,0.326-1.178,0l-3.536-3.535c-0.326-0.326-0.326-0.854,0-1.179c0.326-0.325,0.853-0.325,1.179,0l2.113,2.113
	V52.5C49.167,52.041,49.54,51.667,50.001,51.667z M41.667,61.668h16.667c0.92,0,1.666,0.746,1.666,1.667
	C60,64.255,59.254,65,58.334,65H41.667C40.747,65,40,64.255,40,63.335C40,62.414,40.747,61.668,41.667,61.668z"/>
</svg>
