<?xml version="1.0" encoding="utf-8"?>
<!-- Generator: Adobe Illustrator 16.0.0, SVG Export Plug-In . SVG Version: 6.00 Build 0)  -->
<!DOCTYPE svg PUBLIC "-//W3C//DTD SVG 1.1//EN" "http://www.w3.org/Graphics/SVG/1.1/DTD/svg11.dtd">
<svg version="1.1" id="Layer_1" xmlns="http://www.w3.org/2000/svg" xmlns:xlink="http://www.w3.org/1999/xlink" x="0px" y="0px"
	 width="50px" height="50px" viewBox="25 25 50 50" enable-background="new 25 25 50 50" xml:space="preserve">
<path d="M65.001,46.819c-2.762,0-5.001,1.221-5.001,2.727c0-1.506-2.237-2.727-5-2.727c-1.694,0-3.186,0.462-4.09,1.166v7.925h0.909
	v3.637c0,1.004,0.814,1.818,1.818,1.818s1.816-0.814,1.816-1.818s0.814-1.818,1.818-1.818c1.005,0,1.818,0.814,1.818,1.818
	c0,3.013-2.442,5.454-5.453,5.454c-3.013,0-5.455-2.441-5.455-5.454v-3.637h0.909v-7.925c-0.904-0.703-2.396-1.166-4.092-1.166
	c-2.761,0-4.999,1.221-4.999,2.727l0,0c0-1.506-2.239-2.727-5.001-2.727c-2.761,0-5,1.221-5,2.727C30,43.018,38.956,35,50.002,35
	C61.047,35,70,43.018,70,49.545C70,48.04,67.763,46.819,65.001,46.819z"/>
</svg>
