<?xml version="1.0" encoding="utf-8"?>
<!-- Generator: Adobe Illustrator 16.0.0, SVG Export Plug-In . SVG Version: 6.00 Build 0)  -->
<!DOCTYPE svg PUBLIC "-//W3C//DTD SVG 1.1//EN" "http://www.w3.org/Graphics/SVG/1.1/DTD/svg11.dtd">
<svg version="1.1" id="Layer_1" xmlns="http://www.w3.org/2000/svg" xmlns:xlink="http://www.w3.org/1999/xlink" x="0px" y="0px"
	 width="50px" height="50px" viewBox="25 25 50 50" enable-background="new 25 25 50 50" xml:space="preserve">
<path d="M62.728,58.456v-3.983c2.172-1.259,3.636-3.602,3.636-6.292c0-4.016-3.256-7.273-7.272-7.273
	c-1.456,0-2.804,0.437-3.94,1.174c-1.118-4.834-5.432-8.446-10.605-8.446c-6.024,0-10.909,4.884-10.909,10.908
	c0,3.227,1.409,6.117,3.636,8.115v4.47C32.93,54.611,30,49.924,30,44.543C30,36.511,36.512,30,44.545,30
	c5.458,0,10.21,3.01,12.697,7.458c0.604-0.103,1.215-0.186,1.849-0.186C65.115,37.271,70,42.155,70,48.181
	C70,52.93,66.962,56.957,62.728,58.456z M42.727,59.09c-1.003,0-0.909-0.813-0.909-1.816v-7.274c0-1.003-0.094-1.818,0.909-1.818
	s0.909,0.815,0.909,1.818v7.274C43.636,58.276,43.73,59.09,42.727,59.09z M42.727,62.727c1.003,0,1.818,0.815,1.818,1.818
	c0,1.005-0.814,1.818-1.818,1.818s-1.818-0.813-1.818-1.818C40.909,63.542,41.722,62.727,42.727,62.727z M50,62.727
	c-1.004,0-0.909-0.813-0.909-1.818v-7.271c0-1.005-0.095-1.819,0.909-1.819c1.004,0,0.909,0.814,0.909,1.819v7.271
	C50.909,61.913,51.004,62.727,50,62.727z M50,66.363c1.004,0,1.817,0.813,1.817,1.818C51.817,69.185,51.004,70,50,70
	c-1.004,0-1.818-0.815-1.818-1.818C48.182,67.177,48.996,66.363,50,66.363z M57.272,59.09c-1.003,0-0.909-0.813-0.909-1.816v-7.274
	c0-1.003-0.094-1.818,0.909-1.818c1.004,0,0.909,0.815,0.909,1.818v7.274C58.182,58.276,58.276,59.09,57.272,59.09z M57.272,62.727
	c1.004,0,1.818,0.815,1.818,1.818c0,1.005-0.814,1.818-1.818,1.818c-1.003,0-1.818-0.813-1.818-1.818
	C55.454,63.542,56.27,62.727,57.272,62.727z"/>
</svg>
