<?xml version="1.0" encoding="utf-8"?>
<!-- Generator: Adobe Illustrator 16.0.0, SVG Export Plug-In . SVG Version: 6.00 Build 0)  -->
<!DOCTYPE svg PUBLIC "-//W3C//DTD SVG 1.1//EN" "http://www.w3.org/Graphics/SVG/1.1/DTD/svg11.dtd">
<svg version="1.1" id="Layer_1" xmlns="http://www.w3.org/2000/svg" xmlns:xlink="http://www.w3.org/1999/xlink" x="0px" y="0px"
	 width="50px" height="50px" viewBox="25 25 50 50" enable-background="new 25 25 50 50" xml:space="preserve">
<path d="M62.729,58.456v-3.982c2.172-1.259,3.637-3.602,3.637-6.292c0-4.017-3.257-7.273-7.273-7.273
	c-1.456,0-2.802,0.437-3.94,1.174c-1.118-4.834-5.432-8.446-10.605-8.446c-6.024,0-10.909,4.884-10.909,10.909
	c0,3.227,1.41,6.117,3.637,8.114v4.47C32.931,54.611,30,49.925,30,44.544C30,36.512,36.513,30,44.546,30
	c5.459,0,10.21,3.01,12.697,7.458c0.604-0.103,1.217-0.187,1.849-0.187c6.025,0,10.909,4.884,10.909,10.91
	C70.001,52.93,66.964,56.958,62.729,58.456z M42.728,48.182c1.004,0,1.818,0.815,1.818,1.818v14.546
	c0,1.005-0.814,1.818-1.818,1.818c-1.003,0-1.818-0.813-1.818-1.818V50C40.91,48.997,41.725,48.182,42.728,48.182z M50.001,51.818
	c1.004,0,1.819,0.814,1.819,1.818v14.546c0,1.004-0.815,1.818-1.819,1.818s-1.818-0.814-1.818-1.818V53.637
	C48.183,52.632,48.997,51.818,50.001,51.818z M57.273,48.182c1.004,0,1.818,0.815,1.818,1.818v14.546
	c0,1.005-0.814,1.818-1.818,1.818c-1.003,0-1.818-0.813-1.818-1.818V50C55.455,48.997,56.271,48.182,57.273,48.182z"/>
</svg>
