<?xml version="1.0" encoding="utf-8"?>
<!-- Generator: Adobe Illustrator 16.0.0, SVG Export Plug-In . SVG Version: 6.00 Build 0)  -->
<!DOCTYPE svg PUBLIC "-//W3C//DTD SVG 1.1//EN" "http://www.w3.org/Graphics/SVG/1.1/DTD/svg11.dtd">
<svg version="1.1" id="Layer_1" xmlns="http://www.w3.org/2000/svg" xmlns:xlink="http://www.w3.org/1999/xlink" x="0px" y="0px"
	 width="50px" height="50px" viewBox="25 25 50 50" enable-background="new 25 25 50 50" xml:space="preserve">
<path d="M62.728,60.276v-3.983c2.173-1.26,3.636-3.603,3.636-6.293c0-4.016-3.256-7.272-7.272-7.272
	c-1.455,0-2.803,0.436-3.939,1.173c-1.118-4.834-5.432-8.447-10.605-8.447c-6.025,0-10.909,4.885-10.909,10.911
	c0,3.227,1.41,6.118,3.637,8.114v4.47C32.932,56.431,30,51.745,30,46.365c0-8.034,6.514-14.546,14.546-14.546
	c5.458,0,10.21,3.011,12.696,7.459c0.604-0.103,1.216-0.187,1.849-0.187C65.116,39.091,70,43.976,70,50
	C70,54.748,66.96,58.775,62.728,60.276z M42.728,53.637c1.005,0,1.818,0.815,1.818,1.818c0,1.005-0.813,1.818-1.818,1.818
	c-1.004,0-1.817-0.813-1.817-1.818C40.91,54.452,41.724,53.637,42.728,53.637z M42.728,60.91c1.005,0,1.818,0.814,1.818,1.818
	s-0.813,1.816-1.818,1.816c-1.004,0-1.817-0.812-1.817-1.816C40.91,61.724,41.724,60.91,42.728,60.91z M50.001,57.273
	c1.004,0,1.818,0.814,1.818,1.818s-0.814,1.818-1.818,1.818c-1.005,0-1.818-0.814-1.818-1.818
	C48.183,58.087,48.996,57.273,50.001,57.273z M50.001,64.545c1.004,0,1.818,0.815,1.818,1.818c0,1.006-0.814,1.818-1.818,1.818
	c-1.005,0-1.818-0.812-1.818-1.818C48.183,65.36,48.996,64.545,50.001,64.545z M57.272,53.637c1.005,0,1.818,0.815,1.818,1.818
	c0,1.005-0.813,1.818-1.818,1.818c-1.004,0-1.817-0.813-1.817-1.818C55.455,54.452,56.271,53.637,57.272,53.637z M57.272,60.91
	c1.005,0,1.818,0.814,1.818,1.818s-0.813,1.816-1.818,1.816c-1.004,0-1.817-0.812-1.817-1.816
	C55.455,61.724,56.271,60.91,57.272,60.91z"/>
</svg>
