<?xml version="1.0" encoding="utf-8"?>
<!-- Generator: Adobe Illustrator 16.0.0, SVG Export Plug-In . SVG Version: 6.00 Build 0)  -->
<!DOCTYPE svg PUBLIC "-//W3C//DTD SVG 1.1//EN" "http://www.w3.org/Graphics/SVG/1.1/DTD/svg11.dtd">
<svg version="1.1" id="Layer_1" xmlns="http://www.w3.org/2000/svg" xmlns:xlink="http://www.w3.org/1999/xlink" x="0px" y="0px"
	 width="50px" height="50px" viewBox="25 25 50 50" enable-background="new 25 25 50 50" xml:space="preserve">
<path d="M60.909,61.656v-3.711c3.134-0.81,5.455-3.648,5.455-7.036c0-4.016-3.258-7.272-7.272-7.272
	c-1.456,0-2.805,0.437-3.941,1.174c-1.119-4.834-5.43-8.448-10.605-8.448c-6.024,0-10.908,4.886-10.908,10.911
	c0,4.035,2.197,7.552,5.453,9.438v4.04C33.763,58.592,30,53.375,30,47.273c0-8.033,6.512-14.546,14.545-14.546
	c5.46,0,10.21,3.011,12.697,7.459c0.604-0.103,1.215-0.187,1.85-0.187C65.116,39.999,70,44.884,70,50.907
	C70,56.314,66.066,60.788,60.909,61.656z M43.701,56.364c0.503-0.87,1.614-1.166,2.484-0.665l1.996,1.152v-2.306
	c0-1.004,0.814-1.818,1.818-1.818s1.818,0.814,1.818,1.818v2.306l1.996-1.153c0.87-0.5,1.981-0.204,2.482,0.666
	c0.503,0.871,0.204,1.982-0.664,2.483l-1.997,1.153l1.997,1.152c0.868,0.503,1.167,1.614,0.664,2.485
	c-0.502,0.866-1.612,1.165-2.482,0.662l-1.996-1.151v2.306c0,1.005-0.814,1.818-1.818,1.818s-1.818-0.813-1.818-1.818v-2.306
	l-1.996,1.153c-0.869,0.503-1.981,0.206-2.483-0.663c-0.503-0.87-0.204-1.982,0.665-2.484l1.996-1.154l-1.996-1.152
	C43.498,58.347,43.199,57.235,43.701,56.364z M50,61.819c1.004,0,1.818-0.813,1.818-1.818c0-1.004-0.814-1.818-1.818-1.818
	s-1.818,0.814-1.818,1.818S48.996,61.819,50,61.819z"/>
</svg>
