<?xml version="1.0" encoding="utf-8"?>
<!-- Generator: Adobe Illustrator 16.0.0, SVG Export Plug-In . SVG Version: 6.00 Build 0)  -->
<!DOCTYPE svg PUBLIC "-//W3C//DTD SVG 1.1//EN" "http://www.w3.org/Graphics/SVG/1.1/DTD/svg11.dtd">
<svg version="1.1" id="Layer_1" xmlns="http://www.w3.org/2000/svg" xmlns:xlink="http://www.w3.org/1999/xlink" x="0px" y="0px"
	 width="50px" height="50px" viewBox="25 25 50 50" enable-background="new 25 25 50 50" xml:space="preserve">
<path d="M31.068,55.005c-0.238-0.587-0.43-1.195-0.589-1.818h39.522c0,0.622-0.063,1.227-0.164,1.818H31.068z M37.511,36.824
	c2.086-1.155,4.482-1.817,7.035-1.817c2.551,0,4.942,0.664,7.025,1.817H37.511z M30.127,47.733c0.077-0.62,0.198-1.225,0.352-1.817
	h36.727c0.502,0.557,0.944,1.165,1.323,1.817H30.127z M31.068,44.097c0.255-0.63,0.558-1.235,0.895-1.818h25.167
	c0.036,0.062,0.076,0.123,0.111,0.187c0.604-0.104,1.218-0.187,1.849-0.187c2.229,0,4.3,0.671,6.025,1.818H31.068z M33.202,40.46
	c0.527-0.657,1.114-1.262,1.746-1.818h19.204c0.627,0.555,1.206,1.164,1.729,1.818H33.202z M69.835,51.368H30.127
	c-0.075-0.597-0.126-1.2-0.126-1.817h39.365C69.572,50.136,69.731,50.743,69.835,51.368z M69.366,56.823
	c-0.224,0.636-0.504,1.243-0.837,1.818H33.202c-0.459-0.571-0.87-1.181-1.239-1.818H69.366z M34.948,60.46h32.257
	c-0.618,0.689-1.315,1.305-2.09,1.818H37.511C36.587,61.767,35.734,61.15,34.948,60.46z"/>
</svg>
