<?xml version="1.0" encoding="utf-8"?>
<!-- Generator: Adobe Illustrator 16.0.0, SVG Export Plug-In . SVG Version: 6.00 Build 0)  -->
<!DOCTYPE svg PUBLIC "-//W3C//DTD SVG 1.1//EN" "http://www.w3.org/Graphics/SVG/1.1/DTD/svg11.dtd">
<svg version="1.1" id="Layer_1" xmlns="http://www.w3.org/2000/svg" xmlns:xlink="http://www.w3.org/1999/xlink" x="0px" y="0px"
	 width="50px" height="50px" viewBox="25 25 50 50" enable-background="new 25 25 50 50" xml:space="preserve">
<path d="M68.182,60.909H31.819c-1.004,0-1.818-0.814-1.818-1.818s0.814-1.818,1.818-1.818h36.363c1.004,0,1.818,0.814,1.818,1.818
	S69.188,60.909,68.182,60.909z M68.182,53.636H31.819c-1.004,0-1.818-0.813-1.818-1.818c0-1.003,0.814-1.818,1.818-1.818h36.363
	c1.004,0,1.818,0.815,1.818,1.818C70,52.822,69.188,53.636,68.182,53.636z M59.091,42.728c-1.455,0-2.803,0.437-3.939,1.174
	c-1.12-4.834-5.432-8.447-10.605-8.447c-6.024,0-10.909,4.885-10.909,10.911H30c0-8.033,6.513-14.546,14.545-14.546
	c5.458,0,10.21,3.011,12.696,7.459c0.604-0.103,1.216-0.187,1.849-0.187c4.748,0,8.775,3.039,10.274,7.274h-3.982
	C64.124,44.191,61.781,42.728,59.091,42.728z M31.819,64.544h36.363c1.004,0,1.818,0.815,1.818,1.818
	c0,1.006-0.814,1.818-1.818,1.818H31.819c-1.004,0-1.818-0.812-1.818-1.818C30,65.359,30.814,64.544,31.819,64.544z"/>
</svg>
