<?xml version="1.0" encoding="utf-8"?>
<!-- Generator: Adobe Illustrator 16.0.0, SVG Export Plug-In . SVG Version: 6.00 Build 0)  -->
<!DOCTYPE svg PUBLIC "-//W3C//DTD SVG 1.1//EN" "http://www.w3.org/Graphics/SVG/1.1/DTD/svg11.dtd">
<svg version="1.1" id="Layer_1" xmlns="http://www.w3.org/2000/svg" xmlns:xlink="http://www.w3.org/1999/xlink" x="0px" y="0px"
	 width="50px" height="50px" viewBox="25 25 50 50" enable-background="new 25 25 50 50" xml:space="preserve">
<g>
	<path display="none" fill="none" stroke="#000000" stroke-width="0" stroke-linecap="round" stroke-linejoin="round" d="
		M33.604,49.641c0,6.017,4.878,10.894,10.895,10.894c3.285,0,11.785,0,14.527,0c4.012,0,7.265-3.253,7.265-7.263
		c0-4.011-3.253-7.264-7.265-7.264c-1.453,0-2.799,0.437-3.936,1.172c-1.117-4.827-5.424-8.436-10.592-8.436
		C38.482,38.746,33.604,43.624,33.604,49.641z"/>
	<g id="XMLID_2_">
		<path d="M44.551,36.114c4.89,0,9.414,2.658,11.808,6.937l0.345,0.616l0.696-0.119c0.498-0.085,1.087-0.172,1.679-0.172
			c5.456,0,9.895,4.439,9.895,9.896c0,5.456-4.438,9.895-9.895,9.895H44.551c-7.459,0-13.527-6.067-13.527-13.526
			S37.092,36.114,44.551,36.114 M44.551,35.114c-8.022,0-14.527,6.503-14.527,14.527c0,8.023,6.504,14.526,14.527,14.526
			c2.904,0,12.007,0,14.527,0c6.018,0,10.895-4.879,10.895-10.895c0-6.017-4.877-10.896-10.895-10.896
			c-0.632,0-1.243,0.083-1.847,0.186C54.747,38.122,50.003,35.114,44.551,35.114L44.551,35.114z"/>
	</g>
	<g id="XMLID_1_" display="none">
		<path display="inline" fill="#E6E6E6" d="M29.973,49.641c0,8.023,6.504,14.526,14.526,14.526c2.904,0,12.007,0,14.527,0
			c6.018,0,10.895-4.879,10.895-10.895c0-6.017-4.877-10.896-10.895-10.896c-0.632,0-1.243,0.083-1.847,0.186
			c-2.484-4.441-7.229-7.449-12.681-7.449C36.477,35.114,29.973,41.618,29.973,49.641z"/>
	</g>
</g>
<g>
	<g>
		<g display="none">
			<g display="inline">
				<rect x="29.543" y="51.49" transform="matrix(0.7074 0.7068 -0.7068 0.7074 46.5464 -5.5697)" width="0.915" height="3.883"/>
			</g>
			<g display="inline">
				<rect x="28.059" y="52.974" transform="matrix(0.7072 0.707 -0.707 0.7072 46.5634 -5.5649)" width="3.883" height="0.915"/>
			</g>
		</g>
		<g>
			<g>
				<rect x="38.694" y="37.762" transform="matrix(0.7071 0.7071 -0.7071 0.7071 39.542 -16.0556)" width="0.915" height="3.883"/>
			</g>
			<g>
				<rect x="37.211" y="39.246" transform="matrix(0.7072 0.707 -0.707 0.7072 39.537 -16.0557)" width="3.883" height="0.915"/>
			</g>
		</g>
		<g>
			<g>
				<rect x="47.846" y="37.762" transform="matrix(0.7071 0.7071 -0.7071 0.7071 42.2225 -22.5268)" width="0.915" height="3.883"/>
			</g>
			<g>
				<rect x="46.362" y="39.246" transform="matrix(0.7071 0.7071 -0.7071 0.7071 42.2225 -22.5268)" width="3.882" height="0.915"/>
			</g>
		</g>
	</g>
	<g>
		<g display="none">
			<g display="inline">
				<rect x="32.619" y="58.355" transform="matrix(0.7068 0.7074 -0.7074 0.7068 52.3483 -5.7209)" width="0.915" height="3.883"/>
			</g>
			<g display="inline">
				<rect x="31.135" y="59.839" transform="matrix(0.707 0.7072 -0.7072 0.707 52.3293 -5.7264)" width="3.883" height="0.915"/>
			</g>
		</g>
		<g>
			<g>
				<rect x="60.073" y="58.355" transform="matrix(0.7071 0.7071 -0.7071 0.7071 60.3648 -25.1418)" width="0.916" height="3.882"/>
			</g>
			<g>
				<rect x="58.59" y="59.838" transform="matrix(0.707 0.7072 -0.7072 0.707 60.38 -25.1418)" width="3.883" height="0.915"/>
			</g>
		</g>
		<g>
			<g>
				<rect x="41.77" y="58.355" transform="matrix(0.7068 0.7074 -0.7074 0.7068 55.0312 -12.1945)" width="0.915" height="3.882"/>
			</g>
			<g>
				<rect x="40.286" y="59.839" transform="matrix(0.707 0.7072 -0.7072 0.707 55.0168 -12.197)" width="3.883" height="0.915"/>
			</g>
		</g>
		<g>
			<g>
				<rect x="50.922" y="58.355" transform="matrix(0.7066 0.7076 -0.7076 0.7066 57.7439 -18.6657)" width="0.915" height="3.882"/>
			</g>
			<g>
				<rect x="49.438" y="59.839" transform="matrix(0.707 0.7072 -0.7072 0.707 57.6984 -18.6693)" width="3.883" height="0.914"/>
			</g>
		</g>
	</g>
	<g>
		<g>
			<g>
				<rect x="37.195" y="51.49" transform="matrix(0.7074 0.7068 -0.7068 0.7074 48.7855 -10.9783)" width="0.915" height="3.883"/>
			</g>
			<g>
				<rect x="35.711" y="52.974" transform="matrix(0.7072 0.707 -0.707 0.7072 48.8041 -10.9751)" width="3.883" height="0.915"/>
			</g>
		</g>
		<g>
			<g>
				<rect x="64.65" y="51.49" transform="matrix(0.7071 0.7071 -0.7071 0.7071 56.8513 -30.3878)" width="0.914" height="3.883"/>
			</g>
			<g>
				<rect x="63.166" y="52.974" transform="matrix(0.7071 0.7071 -0.7071 0.7071 56.8513 -30.3878)" width="3.882" height="0.915"/>
			</g>
		</g>
		<g>
			<g>
				<rect x="46.347" y="51.49" transform="matrix(0.7079 0.7063 -0.7063 0.7079 51.4104 -17.4512)" width="0.915" height="3.884"/>
			</g>
			<g>
				<rect x="44.863" y="52.974" transform="matrix(0.7072 0.707 -0.707 0.7072 51.478 -17.4468)" width="3.883" height="0.916"/>
			</g>
		</g>
		<g>
			<g>
				<rect x="55.498" y="51.49" transform="matrix(0.7076 0.7066 -0.7066 0.7076 54.1125 -23.9154)" width="0.915" height="3.884"/>
			</g>
			<g>
				<rect x="54.014" y="52.974" transform="matrix(0.7072 0.707 -0.707 0.7072 54.1571 -23.9165)" width="3.883" height="0.916"/>
			</g>
		</g>
	</g>
	<g>
		<g>
			<g>
				<rect x="34.119" y="44.626" transform="matrix(0.7071 0.7071 -0.7071 0.7071 43.0552 -10.8098)" width="0.915" height="3.883"/>
			</g>
			<g>
				<rect x="32.635" y="46.11" transform="matrix(0.7072 0.707 -0.707 0.7072 43.0501 -10.8105)" width="3.883" height="0.915"/>
			</g>
		</g>
		<g>
			<g>
				<rect x="61.575" y="44.626" transform="matrix(0.7074 0.7068 -0.7068 0.7074 51.068 -30.22)" width="0.915" height="3.883"/>
			</g>
			<g>
				<rect x="60.091" y="46.11" transform="matrix(0.7071 0.7071 -0.7071 0.7071 51.0969 -30.2241)" width="3.882" height="0.916"/>
			</g>
		</g>
		<g>
			<g>
				<rect x="43.271" y="44.626" transform="matrix(0.7074 0.7068 -0.7068 0.7074 45.7119 -17.2824)" width="0.915" height="3.883"/>
			</g>
			<g>
				<rect x="41.787" y="46.11" transform="matrix(0.7072 0.707 -0.707 0.7072 45.7303 -17.2818)" width="3.883" height="0.916"/>
			</g>
		</g>
		<g>
			<g>
				<rect x="52.423" y="44.626" transform="matrix(0.7068 0.7074 -0.7074 0.7068 48.443 -23.7545)" width="0.915" height="3.883"/>
			</g>
			<g>
				<rect x="50.939" y="46.11" transform="matrix(0.7071 0.7071 -0.7071 0.7071 48.4164 -23.7528)" width="3.882" height="0.915"/>
			</g>
		</g>
	</g>
</g>
<g display="none">
	<g display="inline">
		<rect x="27.194" y="51.49" transform="matrix(0.7066 0.7076 -0.7076 0.7066 45.9237 -3.8891)" width="0.915" height="3.883"/>
	</g>
	<g display="inline">
		<rect x="25.71" y="52.973" transform="matrix(0.7071 0.7071 -0.7071 0.7071 45.8804 -3.9028)" width="3.882" height="0.916"/>
	</g>
</g>
</svg>
