<?xml version="1.0" encoding="utf-8"?>
<!-- Generator: Adobe Illustrator 16.0.0, SVG Export Plug-In . SVG Version: 6.00 Build 0)  -->
<!DOCTYPE svg PUBLIC "-//W3C//DTD SVG 1.1//EN" "http://www.w3.org/Graphics/SVG/1.1/DTD/svg11.dtd">
<svg version="1.1" id="Layer_1" xmlns="http://www.w3.org/2000/svg" xmlns:xlink="http://www.w3.org/1999/xlink" x="0px" y="0px"
	 width="50px" height="50px" viewBox="25 25 50 50" enable-background="new 25 25 50 50" xml:space="preserve">
<path d="M66.111,58.851v0.037h-0.555h-2.223c-0.818,0-1.482-0.663-1.482-1.481c0-0.817,0.664-1.48,1.482-1.48h2.223
	c0.817,0,1.48-0.664,1.48-1.481c0-0.818-0.663-1.481-1.48-1.481c-0.818,0-1.482-0.664-1.482-1.482c0-0.817,0.664-1.481,1.482-1.481
	c0.102,0,0.201,0.011,0.297,0.031C68.167,50.186,70,52.092,70,54.444C70,56.709,68.304,58.575,66.111,58.851z M58.148,49.999
	c-0.817,0-1.481-0.663-1.481-1.481c0-0.817,0.664-1.482,1.481-1.482c0.103,0,0.201,0.011,0.298,0.031
	c2.312,0.156,4.146,2.062,4.146,4.414c0,2.267-1.697,4.132-3.889,4.406v0.039h-0.556h-5.915c-2.973,0-8.415,0-10.381,0
	c-0.818,0-1.482,0.663-1.482,1.48c0,0.818,0.664,1.481,1.482,1.481h16.296h0.556v0.039c2.191,0.273,3.889,2.141,3.889,4.406
	c0,2.353-1.834,4.258-4.146,4.414c-0.097,0.02-0.196,0.03-0.298,0.03c-0.817,0-1.481-0.664-1.481-1.481
	c0-0.818,0.664-1.481,1.481-1.481s1.481-0.663,1.481-1.481s-0.664-1.481-1.481-1.481H41.853h-0.556v-0.039
	c-2.192-0.273-3.89-2.141-3.89-4.406c0-0.781,0.218-1.505,0.573-2.141C33.338,53.659,30,49.261,30,44.074
	c0-6.545,5.306-11.852,11.852-11.852c4.448,0,8.319,2.454,10.346,6.078c0.492-0.085,0.989-0.152,1.506-0.152
	c4.368,0,7.992,3.153,8.74,7.306c-1.033-0.737-2.259-1.219-3.592-1.345c-1.021-1.79-2.942-2.998-5.148-2.998
	c-1.186,0-2.284,0.356-3.21,0.956c-0.913-3.938-4.425-6.882-8.641-6.882c-4.91,0-8.89,3.979-8.89,8.889
	c0,4.908,3.98,8.889,8.89,8.889c1.925,0,6.039,0,9.037,0h7.259c0.817,0,1.481-0.664,1.481-1.482S58.968,49.999,58.148,49.999z"/>
</svg>
