<?xml version="1.0" encoding="utf-8"?>
<!-- Generator: Adobe Illustrator 16.0.0, SVG Export Plug-In . SVG Version: 6.00 Build 0)  -->
<!DOCTYPE svg PUBLIC "-//W3C//DTD SVG 1.1//EN" "http://www.w3.org/Graphics/SVG/1.1/DTD/svg11.dtd">
<svg version="1.1" id="Layer_1" xmlns="http://www.w3.org/2000/svg" xmlns:xlink="http://www.w3.org/1999/xlink" x="0px" y="0px"
	 width="50px" height="50px" viewBox="25 25 50 50" enable-background="new 25 25 50 50" xml:space="preserve">
<path d="M64.547,51.817L64.547,51.817h-2.728C60.814,51.817,60,51.004,60,50s0.814-1.818,1.819-1.818h2.728
	c1.004,0,1.817-0.815,1.817-1.817c0-1.005-0.813-1.819-1.817-1.819c-1.005,0-1.818-0.814-1.818-1.818
	c0-1.003,0.813-1.818,1.818-1.818c0.124,0,0.245,0.013,0.364,0.038c2.838,0.191,5.088,2.53,5.088,5.418
	C69.999,49.375,67.56,51.817,64.547,51.817z M55.454,48.182h-1.818h-6.362H35.455c-1.004,0-1.818,0.814-1.818,1.818
	s0.814,1.817,1.818,1.817h1.818h3.636h2.728h3.637h2.728h3.635h1.818c3.013,0,5.455,2.443,5.455,5.455
	c0,2.888-2.25,5.227-5.088,5.418c-0.119,0.025-0.24,0.038-0.367,0.038c-1.004,0-1.818-0.815-1.818-1.819
	c0-1.005,0.814-1.818,1.818-1.818c1.005,0,1.818-0.814,1.818-1.818c0-1.003-0.813-1.818-1.818-1.818h-1.818h-3.635h-2.728h-3.637
	h-2.728h-3.636h-1.818C32.442,55.454,30,53.013,30,50c0-2.887,2.25-5.225,5.088-5.418c0.119-0.023,0.242-0.037,0.367-0.037l0,0
	h11.819h6.362h1.818c1.005,0,1.818-0.814,1.818-1.818c0-1.003-0.813-1.818-1.818-1.818c-1.004,0-1.818-0.813-1.818-1.818
	c0-1.004,0.814-1.818,1.818-1.818c0.127,0,0.248,0.014,0.367,0.037c2.838,0.192,5.088,2.531,5.088,5.418
	C60.909,45.738,58.467,48.182,55.454,48.182z"/>
</svg>
