<?xml version="1.0" encoding="utf-8"?>
<!-- Generator: Adobe Illustrator 16.0.0, SVG Export Plug-In . SVG Version: 6.00 Build 0)  -->
<!DOCTYPE svg PUBLIC "-//W3C//DTD SVG 1.1//EN" "http://www.w3.org/Graphics/SVG/1.1/DTD/svg11.dtd">
<svg version="1.1" id="Layer_1" xmlns="http://www.w3.org/2000/svg" xmlns:xlink="http://www.w3.org/1999/xlink" x="0px" y="0px"
	 width="50px" height="50px" viewBox="25 25 50 50" enable-background="new 25 25 50 50" xml:space="preserve">
<path d="M50,69.868c-4.91,0-8.888-3.979-8.888-8.888c0-2.251,0.842-4.3,2.223-5.867V36.535c0-3.682,2.985-6.667,6.666-6.667
	c3.684,0,6.668,2.985,6.668,6.667v18.579c1.378,1.567,2.223,3.616,2.223,5.867C58.891,65.89,54.909,69.868,50,69.868z
	 M52.223,57.151v-4.771V40.979v-4.444c0-1.227-0.994-2.223-2.223-2.223c-1.227,0-2.223,0.996-2.223,2.223v4.444v11.402v4.771
	c-1.321,0.771-2.22,2.188-2.22,3.829c0,2.454,1.988,4.442,4.443,4.442s4.445-1.988,4.445-4.442
	C54.445,59.339,53.547,57.922,52.223,57.151z M50,64.313c-1.841,0-3.332-1.493-3.332-3.333c0-1.45,0.929-2.67,2.221-3.13V52.09
	h2.223v5.761c1.291,0.46,2.223,1.68,2.223,3.13C53.334,62.82,51.841,64.313,50,64.313z"/>
</svg>
