<?xml version="1.0" encoding="utf-8"?>
<!-- Generator: Adobe Illustrator 16.0.0, SVG Export Plug-In . SVG Version: 6.00 Build 0)  -->
<!DOCTYPE svg PUBLIC "-//W3C//DTD SVG 1.1//EN" "http://www.w3.org/Graphics/SVG/1.1/DTD/svg11.dtd">
<svg version="1.1" id="Layer_1" xmlns="http://www.w3.org/2000/svg" xmlns:xlink="http://www.w3.org/1999/xlink" x="0px" y="0px"
	 width="50px" height="50px" viewBox="25 25 50 50" enable-background="new 25 25 50 50" xml:space="preserve">
<path d="M44.545,64.546C36.513,64.546,30,58.034,30,50c0-8.034,6.513-14.545,14.545-14.545c5.459,0,10.209,3.012,12.697,7.458
	c0.604-0.103,1.217-0.187,1.849-0.187C65.116,42.726,70,47.611,70,53.637c0,6.023-4.884,10.909-10.909,10.909
	C56.567,64.546,47.454,64.546,44.545,64.546z M59.091,60.909c4.018,0,7.274-3.257,7.274-7.272c0-4.017-3.257-7.273-7.274-7.273
	c-1.455,0-2.802,0.438-3.94,1.174c-1.118-4.833-5.431-8.447-10.605-8.447c-6.024,0-10.909,4.884-10.909,10.91
	s4.884,10.909,10.909,10.909C47.834,60.909,56.346,60.909,59.091,60.909z"/>
</svg>
