<?xml version="1.0" encoding="utf-8"?>
<!-- Generator: Adobe Illustrator 16.0.0, SVG Export Plug-In . SVG Version: 6.00 Build 0)  -->
<!DOCTYPE svg PUBLIC "-//W3C//DTD SVG 1.1//EN" "http://www.w3.org/Graphics/SVG/1.1/DTD/svg11.dtd">
<svg version="1.1" id="Layer_1" xmlns="http://www.w3.org/2000/svg" xmlns:xlink="http://www.w3.org/1999/xlink" x="0px" y="0px"
	 width="50px" height="50px" viewBox="25 25 50 50" enable-background="new 25 25 50 50" xml:space="preserve">
<path d="M67.175,50.549L67.175,50.549c1.215,1.732,1.936,3.838,1.936,6.119c0,5.889-4.774,10.666-10.666,10.666
	c-2.467,0-11.38,0-14.223,0C36.366,67.334,30,60.967,30,53.111c0-7.855,6.367-14.223,14.222-14.223c1.78,0,3.48,0.333,5.05,0.931
	l0,0c1.453-4.163,5.403-7.154,10.062-7.154c0.672,0,1.326,0.07,1.962,0.188c-0.116,0.512-0.184,1.043-0.184,1.59
	c0,3.928,3.185,7.111,7.11,7.111c0.549,0,1.078-0.068,1.59-0.185C69.931,42.007,70,42.662,70,43.333
	C70,46.118,68.923,48.648,67.175,50.549z M33.554,53.111c0,5.891,4.775,10.666,10.667,10.666c3.215,0,11.539,0,14.224,0
	c3.928,0,7.11-3.184,7.11-7.109c0-3.928-3.183-7.112-7.11-7.112c-1.424,0-2.742,0.428-3.854,1.147
	c-1.095-4.726-5.311-8.259-10.37-8.259C38.329,42.444,33.554,47.22,33.554,53.111z M50.935,40.58L50.935,40.58L50.935,40.58z
	 M57.742,36.406c-2.577,0.59-4.6,2.587-5.267,5.134l0,0c1.705,1.22,3.132,2.802,4.161,4.64c0.59-0.1,1.188-0.182,1.808-0.182
	c2.326,0,4.475,0.756,6.228,2.019l0,0c0.763-0.871,1.32-1.927,1.588-3.096C61.944,44.118,58.547,40.723,57.742,36.406z"/>
</svg>
