<?xml version="1.0" encoding="utf-8"?>
<!-- Generator: Adobe Illustrator 16.0.0, SVG Export Plug-In . SVG Version: 6.00 Build 0)  -->
<!DOCTYPE svg PUBLIC "-//W3C//DTD SVG 1.1//EN" "http://www.w3.org/Graphics/SVG/1.1/DTD/svg11.dtd">
<svg version="1.1" id="Layer_1" xmlns="http://www.w3.org/2000/svg" xmlns:xlink="http://www.w3.org/1999/xlink" x="0px" y="0px"
	 width="50px" height="50px" viewBox="25 25 50 50" enable-background="new 25 25 50 50" xml:space="preserve">
<path d="M59.09,59.092c-0.256,0-0.591,0-0.966,0l3.259-4.012c2.893-0.96,4.98-3.685,4.98-6.898c0-4.016-3.257-7.271-7.273-7.271
	c-1.456,0-2.802,0.436-3.938,1.173c-1.12-4.833-5.432-8.446-10.606-8.446c-6.024,0-10.909,4.884-10.909,10.91
	c0,4.951,3.303,9.126,7.822,10.458l-1.226,3.435C34.305,56.603,30,51.078,30,44.546C30,36.514,36.513,30,44.545,30
	c5.458,0,10.208,3.011,12.696,7.459c0.604-0.104,1.217-0.187,1.849-0.187c6.025,0,10.91,4.883,10.91,10.909
	S65.115,59.092,59.09,59.092z M48.181,46.363h9.09l-5.455,9.092h6.364L46.363,70l3.273-10.908h-6.001L48.181,46.363z"/>
</svg>
