<?xml version="1.0" encoding="utf-8"?>
<!-- Generator: Adobe Illustrator 16.0.0, SVG Export Plug-In . SVG Version: 6.00 Build 0)  -->
<!DOCTYPE svg PUBLIC "-//W3C//DTD SVG 1.1//EN" "http://www.w3.org/Graphics/SVG/1.1/DTD/svg11.dtd">
<svg version="1.1" id="Layer_1" xmlns="http://www.w3.org/2000/svg" xmlns:xlink="http://www.w3.org/1999/xlink" x="0px" y="0px"
	 width="50px" height="50px" viewBox="25 25 50 50" enable-background="new 25 25 50 50" xml:space="preserve">
<path d="M68.518,51.481h-2.963c-0.818,0-1.481-0.663-1.481-1.482c0-0.818,0.663-1.48,1.481-1.48h2.963C69.335,48.52,70,49.183,70,50
	C70,50.818,69.335,51.481,68.518,51.481z M62.697,41.619c-0.579,0.579-1.517,0.579-2.096,0c-0.579-0.578-0.579-1.516,0-2.094
	l2.096-2.095c0.578-0.578,1.516-0.578,2.095,0s0.579,1.517,0,2.095L62.697,41.619z M60.514,53.182L60.514,53.182
	c1.296,1.545,2.079,3.533,2.079,5.707c0,4.908-3.98,8.889-8.891,8.889c-2.055,0-9.482,0-11.852,0C35.307,67.777,30,62.473,30,55.926
	c0-6.545,5.307-11.851,11.851-11.851c1.165,0,2.29,0.171,3.352,0.484c1.626-2.094,4.162-3.447,7.019-3.447
	c4.91,0,8.891,3.98,8.891,8.888C61.109,51.122,60.893,52.193,60.514,53.182z M32.962,55.926c0,4.91,3.979,8.889,8.889,8.889
	c2.679,0,9.615,0,11.852,0c3.273,0,5.926-2.653,5.926-5.926c0-3.271-2.652-5.926-5.926-5.926c-1.186,0-2.284,0.357-3.21,0.957
	c-0.912-3.938-4.426-6.882-8.642-6.882C36.941,47.038,32.962,51.018,32.962,55.926z M52.221,44.075c-1.639,0-3.122,0.665-4.194,1.74
	c1.733,1.063,3.175,2.558,4.17,4.337C52.688,50.068,53.187,50,53.702,50c1.575,0,3.052,0.415,4.334,1.131l0,0
	c0.071-0.366,0.111-0.744,0.111-1.131C58.147,46.728,55.494,44.075,52.221,44.075z M52.221,38.148c-0.818,0-1.481-0.663-1.481-1.481
	v-2.963c0-0.818,0.664-1.481,1.481-1.481c0.818,0,1.481,0.663,1.481,1.481v2.963C53.702,37.485,53.04,38.148,52.221,38.148z
	 M41.745,41.619l-2.094-2.094c-0.579-0.579-0.579-1.517,0-2.095c0.577-0.578,1.517-0.578,2.094,0l2.095,2.095
	c0.579,0.578,0.579,1.517,0,2.094C43.263,42.198,42.324,42.198,41.745,41.619z"/>
</svg>
