<?xml version="1.0" encoding="utf-8"?>
<!-- Generator: Adobe Illustrator 16.0.0, SVG Export Plug-In . SVG Version: 6.00 Build 0)  -->
<!DOCTYPE svg PUBLIC "-//W3C//DTD SVG 1.1//EN" "http://www.w3.org/Graphics/SVG/1.1/DTD/svg11.dtd">
<svg version="1.1" id="Layer_1" xmlns="http://www.w3.org/2000/svg" xmlns:xlink="http://www.w3.org/1999/xlink" x="0px" y="0px"
	 width="50px" height="50px" viewBox="25 25 50 50" enable-background="new 25 25 50 50" xml:space="preserve">
<path d="M50.002,70C38.955,70,30,61.045,30,50C30,38.954,38.955,30,50.002,30c1.258,0,2.485,0.13,3.678,0.353
	c-0.22,0.96-0.347,1.955-0.347,2.98c0,7.364,5.971,13.333,13.335,13.333c1.026,0,2.021-0.127,2.98-0.347
	c0.222,1.195,0.353,2.42,0.353,3.681C70.001,61.045,61.046,70,50.002,70z M47.021,37.012C41.094,38.367,36.668,43.662,36.668,50
	c0,7.363,5.969,13.333,13.334,13.333c6.336,0,11.632-4.427,12.986-10.354C54.897,51.474,48.526,45.103,47.021,37.012z"/>
</svg>
