<?xml version="1.0" encoding="utf-8"?>
<!-- Generator: Adobe Illustrator 16.0.0, SVG Export Plug-In . SVG Version: 6.00 Build 0)  -->
<!DOCTYPE svg PUBLIC "-//W3C//DTD SVG 1.1//EN" "http://www.w3.org/Graphics/SVG/1.1/DTD/svg11.dtd">
<svg version="1.1" id="Layer_1" xmlns="http://www.w3.org/2000/svg" xmlns:xlink="http://www.w3.org/1999/xlink" x="0px" y="0px"
	 width="50px" height="50px" viewBox="25 25 50 50" enable-background="new 25 25 50 50" xml:space="preserve">
<path d="M68.333,51.666h-3.332c-0.921,0-1.667-0.746-1.667-1.666c0-0.92,0.746-1.667,1.667-1.667h3.332
	C69.254,48.333,70,49.081,70,50C70,50.92,69.255,51.666,68.333,51.666z M61.787,40.573c-0.651,0.65-1.709,0.65-2.357,0
	c-0.651-0.651-0.651-1.706,0-2.357l2.357-2.357c0.648-0.651,1.706-0.651,2.356,0c0.649,0.651,0.649,1.706,0,2.357L61.787,40.573z
	 M50.001,60c-5.523,0-10.002-4.477-10.002-10s4.479-10,10.002-10S60,44.478,60,50S55.524,60,50.001,60z M50.001,43.334
	c-3.682,0-6.668,2.984-6.668,6.667c0,3.681,2.986,6.667,6.668,6.667c3.681,0,6.666-2.986,6.666-6.667
	C56.667,46.318,53.683,43.334,50.001,43.334z M50.001,36.667c-0.921,0-1.667-0.747-1.667-1.667v-3.333
	c0-0.92,0.746-1.667,1.667-1.667c0.92,0,1.667,0.747,1.667,1.667V35C51.668,35.92,50.92,36.667,50.001,36.667z M38.216,40.573
	l-2.357-2.357c-0.65-0.651-0.65-1.706,0-2.357s1.706-0.651,2.357,0l2.356,2.357c0.65,0.651,0.65,1.706,0,2.357
	C39.921,41.223,38.866,41.223,38.216,40.573z M36.667,50c0,0.919-0.747,1.666-1.667,1.666h-3.334C30.746,51.666,30,50.92,30,50
	c0-0.92,0.747-1.667,1.666-1.667H35C35.921,48.333,36.667,49.081,36.667,50z M38.216,59.43c0.65-0.65,1.705-0.65,2.356,0
	c0.65,0.648,0.65,1.705,0,2.355l-2.356,2.357c-0.651,0.65-1.707,0.65-2.357,0s-0.65-1.707,0-2.357L38.216,59.43z M50.001,63.334
	c0.92,0,1.667,0.746,1.667,1.666v3.334c0,0.92-0.747,1.666-1.667,1.666c-0.921,0-1.667-0.746-1.667-1.666V65
	C48.334,64.08,49.08,63.334,50.001,63.334z M61.787,59.43l2.356,2.355c0.649,0.65,0.649,1.707,0,2.357
	c-0.65,0.65-1.708,0.65-2.356,0l-2.357-2.357c-0.651-0.65-0.651-1.707,0-2.355C60.078,58.777,61.134,58.777,61.787,59.43z"/>
</svg>
