<?xml version="1.0" encoding="utf-8"?>
<!-- Generator: Adobe Illustrator 16.0.0, SVG Export Plug-In . SVG Version: 6.00 Build 0)  -->
<!DOCTYPE svg PUBLIC "-//W3C//DTD SVG 1.1//EN" "http://www.w3.org/Graphics/SVG/1.1/DTD/svg11.dtd">
<svg version="1.1" id="Layer_1" xmlns="http://www.w3.org/2000/svg" xmlns:xlink="http://www.w3.org/1999/xlink" x="0px" y="0px"
	 width="50px" height="50px" viewBox="25 25 50 50" enable-background="new 25 25 50 50" xml:space="preserve">
<path d="M68.57,50h-1.428v2.857c0,2.366-1.92,4.285-4.287,4.285h-5.713c-2.367,0-4.285-1.919-4.285-4.285l-1.414-5.656
	c-0.494-0.034-0.995-0.059-1.488-0.059c-0.474,0-0.942,0.027-1.399,0.067l-1.413,5.648c0,2.366-1.918,4.285-4.287,4.285h-5.713
	c-2.368,0-4.286-1.919-4.286-4.285V50H31.43c-0.79,0-1.429-0.639-1.429-1.429v-1.429c0-0.788,0.639-1.427,1.429-1.427h1.692
	c0.589-1.662,2.16-2.857,4.021-2.857h7.142c1.35,0,2.54,0.635,3.327,1.613c0.75-0.108,1.537-0.184,2.344-0.184
	c0.822,0,1.65,0.065,2.458,0.154c0.785-0.959,1.965-1.583,3.301-1.583h7.143c1.865,0,3.434,1.196,4.021,2.857h1.693
	c0.789,0,1.428,0.639,1.428,1.427v1.429C70,49.361,69.361,50,68.57,50z M41.914,45.229c-0.417-0.419-1.098-0.419-1.516,0
	l-4.544,4.545c-0.419,0.418-0.419,1.097,0,1.515c0.417,0.419,1.097,0.419,1.514,0l4.546-4.545
	C42.332,46.325,42.332,45.647,41.914,45.229z M61.914,45.229c-0.418-0.419-1.098-0.419-1.516,0l-4.547,4.545
	c-0.418,0.418-0.418,1.097,0,1.515c0.418,0.419,1.098,0.419,1.518,0l4.545-4.545C62.332,46.325,62.332,45.647,61.914,45.229z"/>
</svg>
