<?xml version="1.0" encoding="utf-8"?>
<!-- Generator: Adobe Illustrator 16.0.0, SVG Export Plug-In . SVG Version: 6.00 Build 0)  -->
<!DOCTYPE svg PUBLIC "-//W3C//DTD SVG 1.1//EN" "http://www.w3.org/Graphics/SVG/1.1/DTD/svg11.dtd">
<svg version="1.1" id="Layer_1" xmlns="http://www.w3.org/2000/svg" xmlns:xlink="http://www.w3.org/1999/xlink" x="0px" y="0px"
	 width="50px" height="50px" viewBox="25 25 50 50" enable-background="new 25 25 50 50" xml:space="preserve">
<path d="M64.858,48.667c0.663-0.824,1.159-1.79,1.401-2.854c-4.316-0.804-7.714-4.202-8.516-8.517
	c-2.275,0.52-4.113,2.137-4.974,4.259H37.343c2.039-1.13,4.383-1.777,6.878-1.777c1.78,0,3.48,0.334,5.05,0.932
	c1.453-4.164,5.403-7.154,10.061-7.154c0.671,0,1.325,0.069,1.962,0.188c-0.116,0.512-0.184,1.042-0.184,1.59
	c0,3.928,3.184,7.11,7.11,7.11c0.548,0,1.078-0.068,1.591-0.184C69.93,42.897,70,43.551,70,44.222c0,1.59-0.361,3.092-0.986,4.445
	H64.858z M69.11,57.555c0,0.609-0.062,1.199-0.161,1.778H31.043c-0.232-0.574-0.42-1.169-0.577-1.778H69.11z M68.49,61.111
	c-0.219,0.621-0.492,1.215-0.817,1.777H33.129c-0.45-0.559-0.851-1.154-1.211-1.777H68.49z M66.379,64.667
	c-0.604,0.673-1.285,1.275-2.043,1.778H37.343c-0.904-0.5-1.738-1.104-2.505-1.778H66.379z M30.124,55.777
	C30.051,55.193,30,54.604,30,54h38.48c0.203,0.574,0.37,1.164,0.474,1.777H30.124z M67.174,51.436
	c0.174,0.25,0.314,0.523,0.469,0.787H30.124c0.075-0.607,0.193-1.198,0.342-1.778h37.507C67.725,50.788,67.462,51.125,67.174,51.436
	z M64.311,48.667H31.043c0.25-0.616,0.545-1.208,0.875-1.778h24.604c0.035,0.062,0.08,0.119,0.115,0.182
	c0.59-0.102,1.188-0.182,1.808-0.182C60.615,46.889,62.625,47.551,64.311,48.667z M34.836,43.333h18.768
	c0.613,0.54,1.169,1.14,1.682,1.778H33.129C33.645,44.468,34.219,43.877,34.836,43.333z"/>
</svg>
