<?xml version="1.0" encoding="utf-8"?>
<!-- Generator: Adobe Illustrator 16.0.0, SVG Export Plug-In . SVG Version: 6.00 Build 0)  -->
<!DOCTYPE svg PUBLIC "-//W3C//DTD SVG 1.1//EN" "http://www.w3.org/Graphics/SVG/1.1/DTD/svg11.dtd">
<svg version="1.1" id="Layer_1" xmlns="http://www.w3.org/2000/svg" xmlns:xlink="http://www.w3.org/1999/xlink" x="0px" y="0px"
	 width="50px" height="50px" viewBox="25 25 50 50" enable-background="new 25 25 50 50" xml:space="preserve">
<path d="M68.519,52.223h-2.964c-0.817,0-1.481-0.664-1.481-1.481c0-0.818,0.664-1.482,1.481-1.482h2.964
	c0.818,0,1.481,0.664,1.481,1.482C70,51.559,69.337,52.223,68.519,52.223z M62.698,42.36c-0.579,0.578-1.518,0.578-2.096,0
	c-0.578-0.579-0.578-1.517,0-2.095l2.096-2.095c0.578-0.579,1.517-0.579,2.095,0s0.578,1.517,0,2.095L62.698,42.36z M60.978,52.223
	H30.87c0.208-0.514,0.454-1.006,0.729-1.481h20.5c0.03,0.052,0.069,0.099,0.099,0.151c0.492-0.084,0.99-0.151,1.506-0.151
	c1.574,0,3.052,0.414,4.335,1.131l0,0c0.07-0.366,0.11-0.745,0.11-1.131c0-3.273-2.653-5.926-5.927-5.926
	c-1.5,0-2.866,0.562-3.909,1.481H36.119c1.7-0.942,3.652-1.481,5.732-1.481c1.165,0,2.289,0.172,3.351,0.485
	c1.626-2.095,4.163-3.448,7.02-3.448c4.909,0,8.89,3.979,8.89,8.889C61.111,51.247,61.062,51.74,60.978,52.223z M52.222,38.89
	c-0.818,0-1.48-0.664-1.48-1.482v-2.962c0-0.818,0.664-1.482,1.48-1.482c0.818,0,1.481,0.664,1.481,1.482v2.962
	C53.703,38.226,53.04,38.89,52.222,38.89z M41.746,42.36l-2.094-2.095c-0.579-0.579-0.579-1.517,0-2.095
	c0.578-0.579,1.516-0.579,2.094,0l2.095,2.095c0.579,0.579,0.579,1.516,0,2.095C43.263,42.938,42.325,42.938,41.746,42.36z
	 M34.031,47.778h15.618c0.515,0.453,0.989,0.947,1.421,1.481H32.608C33.038,48.724,33.516,48.231,34.031,47.778z M62.465,58.147
	H30.103C30.042,57.661,30,57.17,30,56.666h32.08C62.249,57.144,62.379,57.639,62.465,58.147z M34.031,65.556h26.285
	c-0.504,0.562-1.072,1.062-1.703,1.48H36.119C35.367,66.621,34.671,66.118,34.031,65.556z M31.599,62.593h30.477
	c-0.182,0.518-0.411,1.013-0.682,1.481H32.608C32.235,63.608,31.899,63.112,31.599,62.593z M30.103,55.185
	c0.063-0.505,0.162-0.997,0.287-1.479h30.199c-0.026,0.072-0.047,0.145-0.074,0.218l0,0c0.33,0.392,0.626,0.816,0.884,1.262H30.103z
	 M30.389,59.629h32.204c0,0.508-0.053,0.999-0.135,1.481H30.87C30.676,60.632,30.52,60.136,30.389,59.629z"/>
</svg>
