<?xml version="1.0" encoding="utf-8"?>
<!-- Generator: Adobe Illustrator 16.0.0, SVG Export Plug-In . SVG Version: 6.00 Build 0)  -->
<!DOCTYPE svg PUBLIC "-//W3C//DTD SVG 1.1//EN" "http://www.w3.org/Graphics/SVG/1.1/DTD/svg11.dtd">
<svg version="1.1" id="Layer_1" xmlns="http://www.w3.org/2000/svg" xmlns:xlink="http://www.w3.org/1999/xlink" x="0px" y="0px"
	 width="50px" height="50px" viewBox="25 25 50 50" enable-background="new 25 25 50 50" xml:space="preserve">
<path d="M68.298,63.043c-0.94,0-1.702-0.778-1.702-1.739c0-0.96,0.762-1.739,1.702-1.739c0.939,0,1.702,0.779,1.702,1.739
	C70,62.265,69.237,63.043,68.298,63.043z M60.638,57.219v-3.81c2.033-1.203,3.405-3.445,3.405-6.018
	c0-3.842-3.049-6.957-6.809-6.957c-1.362,0-2.624,0.417-3.689,1.123c-1.048-4.624-5.084-8.079-9.928-8.079
	c-5.641,0-10.213,4.672-10.213,10.434c0,3.086,1.32,5.851,3.405,7.761v4.275C32.743,53.541,30,49.059,30,43.912
	C30,36.229,36.096,30,43.617,30c5.11,0,9.558,2.879,11.887,7.134c0.564-0.099,1.138-0.179,1.73-0.179
	c5.64,0,10.212,4.672,10.212,10.436C67.446,51.933,64.602,55.785,60.638,57.219z M32.554,63.913c0.939,0,1.701,0.778,1.701,1.739
	c0,0.96-0.762,1.739-1.701,1.739c-0.94,0-1.703-0.779-1.703-1.739C30.851,64.69,31.613,63.913,32.554,63.913z M41.063,49.13
	c0-0.959-0.088-1.739,0.851-1.739c0.94,0,0.852,0.78,0.852,1.739V70h-1.703l0,0l0,0c0-1.921-1.523-3.479-3.404-3.479v-1.739
	c1.313,0,2.5,0.522,3.404,1.354V49.13z M48.723,61.304c-0.939,0-0.851-0.778-0.851-1.739v-6.955c0-0.961-0.088-1.739,0.851-1.739
	s0.851,0.778,0.851,1.739v6.955C49.574,60.525,49.663,61.304,48.723,61.304z M48.723,64.782c0.939,0,1.703,0.779,1.703,1.739
	c0,0.961-0.763,1.739-1.703,1.739s-1.702-0.778-1.702-1.739S47.784,64.782,48.723,64.782z M55.532,47.391
	c0.939,0,0.851,0.78,0.851,1.739v15.668c1.552-2.117,4.021-3.495,6.809-3.495v1.739c-3.761,0-6.809,3.115-6.809,6.957h-1.702
	c0-0.236,0.018-0.471,0.035-0.701c-0.046-0.291-0.035-0.647-0.035-1.038V49.13C54.681,48.171,54.592,47.391,55.532,47.391z"/>
</svg>
