<?xml version="1.0" encoding="utf-8"?>
<!-- Generator: Adobe Illustrator 16.0.0, SVG Export Plug-In . SVG Version: 6.00 Build 0)  -->
<!DOCTYPE svg PUBLIC "-//W3C//DTD SVG 1.1//EN" "http://www.w3.org/Graphics/SVG/1.1/DTD/svg11.dtd">
<svg version="1.1" id="Layer_1" xmlns="http://www.w3.org/2000/svg" xmlns:xlink="http://www.w3.org/1999/xlink" x="0px" y="0px"
	 width="50px" height="50px" viewBox="25 25 50 50" enable-background="new 25 25 50 50" xml:space="preserve">
<path d="M50,69.869c-4.909,0-8.89-3.98-8.89-8.89c0-2.251,0.844-4.3,2.222-5.867V36.537c0-3.682,2.986-6.667,6.667-6.667
	c3.681,0,6.666,2.986,6.666,6.667v18.576c1.38,1.567,2.222,3.616,2.222,5.867C58.888,65.889,54.909,69.869,50,69.869z M52.223,57.15
	v-4.768V40.979v-4.444c0-1.227-0.996-2.223-2.223-2.223s-2.222,0.996-2.222,2.223v4.444v11.403v4.768
	c-1.322,0.771-2.223,2.188-2.223,3.829c0,2.454,1.99,4.444,4.445,4.444c2.455,0,4.444-1.99,4.444-4.444
	C54.444,59.339,53.544,57.921,52.223,57.15z M50,64.312c-1.84,0-3.333-1.493-3.333-3.333c0-1.45,0.931-2.67,2.222-3.13V40.91h2.223
	V57.85c1.291,0.46,2.223,1.68,2.223,3.13C53.334,62.819,51.841,64.312,50,64.312z"/>
</svg>
