<?xml version="1.0" encoding="utf-8"?>
<!-- Generator: Adobe Illustrator 16.0.0, SVG Export Plug-In . SVG Version: 6.00 Build 0)  -->
<!DOCTYPE svg PUBLIC "-//W3C//DTD SVG 1.1//EN" "http://www.w3.org/Graphics/SVG/1.1/DTD/svg11.dtd">
<svg version="1.1" id="Layer_1" xmlns="http://www.w3.org/2000/svg" xmlns:xlink="http://www.w3.org/1999/xlink" x="0px" y="0px"
	 width="50px" height="50px" viewBox="25 25 50 50" enable-background="new 25 25 50 50" xml:space="preserve">
<path d="M68.519,47.333h-2.963c-0.818,0-1.481-0.597-1.481-1.333c0-0.736,0.663-1.333,1.481-1.333h2.963
	C69.336,44.666,70,45.263,70,46C70,46.737,69.337,47.333,68.519,47.333z M62.698,38.457c-0.578,0.521-1.517,0.521-2.095,0
	c-0.579-0.521-0.579-1.365,0-1.886l2.095-1.885c0.578-0.521,1.517-0.521,2.095,0c0.578,0.521,0.578,1.365,0,1.885L62.698,38.457z
	 M60.514,48.863L60.514,48.863c0.995,1.067,1.683,2.37,1.951,3.803h-0.007c0.081,0.435,0.134,0.879,0.134,1.333
	c0,4.419-3.979,8.001-8.889,8.001c-0.207,0-0.48,0-0.786,0l2.655-2.941c2.356-0.705,4.058-2.702,4.058-5.06
	c0-0.46-0.072-0.905-0.194-1.333l0,0c-0.658-2.299-2.972-4-5.731-4c-1.187,0-2.284,0.32-3.21,0.861
	c-0.912-3.544-4.425-6.195-8.642-6.195c-4.91,0-8.889,3.583-8.889,8.001c0,0.454,0.052,0.898,0.134,1.332h-0.01
	c0.566,3.032,3.028,5.483,6.251,6.338l-1,2.519c-4.373-1.221-7.653-4.661-8.235-8.856l0,0C30.042,52.229,30,51.785,30,51.334
	c0-5.892,5.306-10.668,11.852-10.668c1.165,0,2.289,0.155,3.351,0.437C46.83,39.217,49.365,38,52.223,38c4.909,0,8.89,3.582,8.89,8
	C61.111,47.01,60.895,47.972,60.514,48.863z M52.222,40.667c-1.639,0-3.123,0.599-4.195,1.567c1.734,0.957,3.175,2.301,4.17,3.902
	C52.689,46.062,53.188,46,53.703,46c1.574,0,3.052,0.373,4.335,1.018l0,0c0.07-0.33,0.109-0.669,0.109-1.018
	C58.147,43.054,55.495,40.667,52.222,40.667z M52.222,35.333c-0.818,0-1.481-0.598-1.481-1.333v-2.667
	c0-0.736,0.663-1.333,1.481-1.333s1.481,0.597,1.481,1.333V34C53.703,34.736,53.04,35.333,52.222,35.333z M41.746,38.457
	l-2.094-1.886c-0.579-0.521-0.579-1.365,0-1.885c0.578-0.521,1.516-0.521,2.094,0l2.095,1.885c0.579,0.521,0.579,1.365,0,1.886
	C43.263,38.978,42.325,38.978,41.746,38.457z M44.814,52.666h7.408l-4.444,6.667h5.186L43.333,70L46,62h-4.89L44.814,52.666z"/>
</svg>
