<?xml version="1.0" encoding="utf-8"?>
<!-- Generator: Adobe Illustrator 16.0.0, SVG Export Plug-In . SVG Version: 6.00 Build 0)  -->
<!DOCTYPE svg PUBLIC "-//W3C//DTD SVG 1.1//EN" "http://www.w3.org/Graphics/SVG/1.1/DTD/svg11.dtd">
<svg version="1.1" id="Layer_1" xmlns="http://www.w3.org/2000/svg" xmlns:xlink="http://www.w3.org/1999/xlink" x="0px" y="0px"
	 width="50px" height="50px" viewBox="25 25 50 50" enable-background="new 25 25 50 50" xml:space="preserve">
<path d="M44.546,64.546c-8.033,0-14.547-6.514-14.547-14.546c0-8.034,6.514-14.545,14.547-14.545c5.459,0,10.209,3.011,12.696,7.458
	c0.604-0.103,1.217-0.186,1.849-0.186c6.025,0,10.909,4.885,10.909,10.91c0,6.022-4.884,10.909-10.909,10.909
	C56.567,64.546,47.453,64.546,44.546,64.546z M59.091,60.907c4.018,0,7.273-3.256,7.273-7.271c0-4.017-3.256-7.273-7.273-7.273
	c-1.455,0-2.802,0.437-3.94,1.174c-1.118-4.833-5.431-8.447-10.604-8.447c-6.025,0-10.909,4.884-10.909,10.91
	s4.884,10.907,10.909,10.907C47.834,60.907,56.346,60.907,59.091,60.907z"/>
</svg>
