<?xml version="1.0" encoding="utf-8"?>
<!-- Generator: Adobe Illustrator 16.0.0, SVG Export Plug-In . SVG Version: 6.00 Build 0)  -->
<!DOCTYPE svg PUBLIC "-//W3C//DTD SVG 1.1//EN" "http://www.w3.org/Graphics/SVG/1.1/DTD/svg11.dtd">
<svg version="1.1" id="Layer_1" xmlns="http://www.w3.org/2000/svg" xmlns:xlink="http://www.w3.org/1999/xlink" x="0px" y="0px"
	 width="50px" height="50px" viewBox="25 25 50 50" enable-background="new 25 25 50 50" xml:space="preserve">
<polygon points="53.351,48.103 48.565,48.103 46.17,54.856 49.331,54.856 47.607,60.643 53.83,52.925 50.479,52.925 "/>
<path d="M57.181,63.038c0.961,0,0.872-0.56,0.872-1.248v-4.999c0-0.69,0.089-1.249-0.872-1.249c-0.959,0-0.869,0.559-0.869,1.249
	v4.999C56.312,62.479,56.22,63.038,57.181,63.038z"/>
<path display="none" d="M56.852,82.818c1.004,0,0.91-0.813,0.91-1.815V73.73c0-1.002,0.094-1.817-0.91-1.817
	c-1.002,0-0.908,0.815-0.908,1.817v7.272C55.943,82.007,55.848,82.818,56.852,82.818z"/>
<path display="none" d="M42.201,75.547c1.004,0,0.91-0.812,0.91-1.814v-7.273c0-1.004,0.094-1.818-0.91-1.818
	c-1.002,0-0.908,0.814-0.908,1.818v7.273C41.292,74.732,41.197,75.547,42.201,75.547z"/>
<path display="none" d="M42.201,82.818c1.004,0,0.91-0.813,0.91-1.815V73.73c0-1.002,0.094-1.817-0.91-1.817
	c-1.002,0-0.908,0.815-0.908,1.817v7.272C41.292,82.007,41.197,82.818,42.201,82.818z"/>
<path d="M42.818,66.252c0.961,0,0.871-0.559,0.871-1.247v-4.998c0-0.69,0.09-1.25-0.871-1.25c-0.958,0-0.87,0.56-0.87,1.25v4.998
	C41.949,65.693,41.857,66.252,42.818,66.252z"/>
<path d="M50,70c0.961,0,0.872-0.56,0.872-1.247v-4.999c0-0.69,0.09-1.249-0.872-1.249c-0.959,0-0.87,0.559-0.87,1.249v4.999
	C49.129,69.44,49.039,70,50,70z"/>
<path display="none" d="M60,41.642c-0.695,0-1.369,0.091-2.033,0.205c-2.736-4.892-7.961-8.204-13.965-8.204
	c-8.835,0-15.998,7.164-15.998,15.999c0,7.184,4.735,13.26,11.255,15.282l1.349-3.777c-4.972-1.465-8.604-6.058-8.604-11.502
	c0-6.628,5.372-12,11.998-12c5.691,0,10.434,3.974,11.665,9.29c1.25-0.81,2.731-1.29,4.333-1.29c4.418,0,7.999,3.58,7.999,7.999
	c0,3.534-2.296,6.53-5.478,7.588l-3.584,4.412c0.412,0,0.78,0,1.062,0c6.627,0,12-5.373,12-12
	C71.999,47.013,66.627,41.642,60,41.642z"/>
<path d="M58.703,36.961c-0.606,0-1.191,0.081-1.77,0.179C54.554,32.882,50.002,30,44.777,30c-7.691,0-13.926,6.235-13.926,13.926
	c0,5.151,2.805,9.638,6.962,12.048v-4.28c-2.132-1.912-3.48-4.68-3.48-7.768c0-5.767,4.677-10.445,10.444-10.445
	c4.954,0,9.084,3.459,10.155,8.087c1.088-0.706,2.375-1.124,3.771-1.124c3.848,0,6.961,3.117,6.961,6.962
	c0,2.576-1.4,4.82-3.479,6.024v3.812c4.056-1.433,6.965-5.288,6.965-9.835C69.148,41.639,64.472,36.961,58.703,36.961z"/>
</svg>
