<?xml version="1.0" encoding="utf-8"?>
<!-- Generator: Adobe Illustrator 16.0.0, SVG Export Plug-In . SVG Version: 6.00 Build 0)  -->
<!DOCTYPE svg PUBLIC "-//W3C//DTD SVG 1.1//EN" "http://www.w3.org/Graphics/SVG/1.1/DTD/svg11.dtd">
<svg version="1.1" id="Layer_1" xmlns="http://www.w3.org/2000/svg" xmlns:xlink="http://www.w3.org/1999/xlink" x="0px" y="0px"
	 width="50px" height="50px" viewBox="0 0 50 50" enable-background="new 0 0 50 50" xml:space="preserve">
<path d="M17.727,23.182c-1.002,0-0.908,0.815-0.908,1.818v7.273c0,1.004-0.094,1.816,0.908,1.816c1.003,0,0.909-0.814,0.909-1.816
	V25C18.636,23.997,18.731,23.182,17.727,23.182z"/>
<path d="M34.091,12.271c-0.634,0-1.245,0.084-1.849,0.187C29.755,8.011,25.003,5,19.545,5C11.512,5,5,11.512,5,19.544
	c0,5.381,2.93,10.067,7.276,12.586v-4.47c-2.226-1.997-3.635-4.887-3.635-8.114c0-6.023,4.885-10.908,10.908-10.908
	c5.173,0,9.487,3.612,10.605,8.446c1.135-0.737,2.482-1.174,3.938-1.174c4.015,0,7.272,3.256,7.272,7.272
	c0,2.69-1.465,5.033-3.637,6.291v3.983C41.962,31.957,45,27.93,45,23.181C45,17.155,40.115,12.271,34.091,12.271z"/>
<circle display="none" cx="17.727" cy="39.545" r="1.818"/>
<path d="M32.271,34.09c1.004,0,0.91-0.814,0.91-1.816V25c0-1.003,0.094-1.818-0.91-1.818c-1.002,0-0.908,0.815-0.908,1.818v7.273
	C31.363,33.277,31.27,34.09,32.271,34.09z"/>
<circle cx="25" cy="43.182" r="1.818"/>
<circle cx="32.271" cy="39.545" r="1.818"/>
<path d="M25,37.727c1.004,0,0.909-0.813,0.909-1.816v-7.271c0-1.005,0.095-1.818-0.909-1.818s-0.909,0.813-0.909,1.818v7.271
	C24.091,36.915,23.996,37.727,25,37.727z"/>
<path d="M17.727,30.456c-1.001,0-0.908,0.814-0.908,1.817v7.273c0,1.004-0.094,1.816,0.908,1.816c1.004,0,0.91-0.814,0.91-1.816
	v-7.273C18.637,31.271,18.73,30.456,17.727,30.456z"/>
</svg>
