<?xml version="1.0" encoding="utf-8"?>
<!-- Generator: Adobe Illustrator 16.0.0, SVG Export Plug-In . SVG Version: 6.00 Build 0)  -->
<!DOCTYPE svg PUBLIC "-//W3C//DTD SVG 1.1//EN" "http://www.w3.org/Graphics/SVG/1.1/DTD/svg11.dtd">
<svg version="1.1" id="Layer_1" xmlns="http://www.w3.org/2000/svg" xmlns:xlink="http://www.w3.org/1999/xlink" x="0px" y="0px"
	 width="50px" height="50px" viewBox="0 0 50 50" enable-background="new 0 0 50 50" xml:space="preserve">
<path d="M34.091,12.271c-0.634,0-1.245,0.084-1.849,0.187C29.754,8.012,25.004,5,19.545,5C11.512,5,5,11.512,5,19.545
	c0,5.381,2.93,10.066,7.273,12.586v-4.468c-2.227-1.998-3.635-4.89-3.635-8.116c0-6.025,4.883-10.91,10.908-10.91
	c5.174,0,9.485,3.613,10.604,8.446c1.137-0.735,2.482-1.174,3.939-1.174c4.018,0,7.271,3.256,7.271,7.274
	c0,2.689-1.465,5.03-3.635,6.292v3.981C41.961,31.958,45,27.93,45,23.184C45,17.157,40.116,12.271,34.091,12.271z"/>
<path display="none" d="M17.727,34.091c-1.004,0-1.818,0.813-1.817,1.818v3.636c0,1.005,0.813,1.818,1.817,1.818
	s1.819-0.813,1.819-1.818v-3.636C19.546,34.905,18.73,34.091,17.727,34.091z"/>
<path display="none" d="M24.999,37.729c-1.003,0-1.817,0.812-1.815,1.816v3.637c0,1.006,0.812,1.818,1.815,1.818
	c1.005,0,1.819-0.812,1.819-1.818v-3.637C26.818,38.542,26.003,37.729,24.999,37.729z"/>
<path display="none" d="M32.271,34.091c-1.004,0-1.817,0.813-1.817,1.818v3.636c0,1.005,0.813,1.818,1.817,1.818
	s1.817-0.813,1.817-1.818v-3.636C34.09,34.905,33.275,34.091,32.271,34.091z"/>
<path d="M32.271,23.184c-1.004,0-1.817,0.812-1.817,1.817v3.635c0,1.005,0.813,1.818,1.817,1.818s1.817-0.813,1.817-1.818v-3.635
	C34.09,23.997,33.275,23.184,32.271,23.184z"/>
<path d="M19.546,28.636v-3.635c0-1.004-0.815-1.817-1.819-1.817s-1.818,0.812-1.817,1.817v3.635c0,1.005,0.813,1.818,1.817,1.818
	S19.546,29.641,19.546,28.636z"/>
<path d="M24.999,26.816c-1.003,0-1.817,0.815-1.815,1.817v3.638c0,1.006,0.812,1.817,1.815,1.817c1.005,0,1.819-0.812,1.819-1.817
	v-3.638C26.818,27.632,26.003,26.816,24.999,26.816z"/>
<circle cx="17.728" cy="39.545" r="1.818"/>
<circle cx="32.271" cy="39.545" r="1.818"/>
<circle cx="25.001" cy="43.183" r="1.817"/>
<circle display="none" cx="25.001" cy="30.453" r="1.817"/>
<circle display="none" cx="17.728" cy="26.818" r="1.818"/>
<circle display="none" cx="32.271" cy="26.818" r="1.818"/>
</svg>
