<?xml version="1.0" encoding="utf-8"?>
<!-- Generator: Adobe Illustrator 16.0.0, SVG Export Plug-In . SVG Version: 6.00 Build 0)  -->
<!DOCTYPE svg PUBLIC "-//W3C//DTD SVG 1.1//EN" "http://www.w3.org/Graphics/SVG/1.1/DTD/svg11.dtd">
<svg version="1.1" id="Layer_1" xmlns="http://www.w3.org/2000/svg" xmlns:xlink="http://www.w3.org/1999/xlink" x="0px" y="0px"
	 width="50px" height="50px" viewBox="0 0 50 50" enable-background="new 0 0 50 50" xml:space="preserve">
<path d="M37.729,33.457v-3.982c2.17-1.261,3.636-3.602,3.636-6.291c0-4.019-3.255-7.274-7.272-7.274
	c-1.457,0-2.804,0.438-3.939,1.174c-1.12-4.833-5.432-8.446-10.605-8.446c-6.025,0-10.908,4.885-10.908,10.91
	c0,3.227,1.408,6.118,3.635,8.116v4.468C7.93,29.611,5,24.926,5,19.545C5,11.512,11.512,5,19.545,5
	c5.459,0,10.209,3.012,12.697,7.458c0.604-0.103,1.215-0.187,1.849-0.187C40.116,12.271,45,17.157,45,23.184
	C45,27.93,41.961,31.958,37.729,33.457z M17.727,23.184c1.004,0,1.819,0.813,1.819,1.817v3.635c0,1.005-0.815,1.818-1.819,1.818
	s-1.817-0.813-1.817-1.818v-3.635C15.908,23.996,16.723,23.184,17.727,23.184z M17.727,34.091c1.004,0,1.819,0.814,1.819,1.818
	v3.636c0,1.005-0.815,1.818-1.819,1.818s-1.817-0.813-1.817-1.818v-3.636C15.908,34.904,16.723,34.091,17.727,34.091z
	 M24.999,26.816c1.004,0,1.819,0.815,1.819,1.818v3.637c0,1.006-0.814,1.818-1.819,1.818c-1.003,0-1.815-0.812-1.815-1.818v-3.637
	C23.182,27.633,23.996,26.816,24.999,26.816z M24.999,37.729c1.004,0,1.819,0.813,1.819,1.816v3.637
	c0,1.006-0.814,1.818-1.819,1.818c-1.003,0-1.815-0.812-1.815-1.818v-3.637C23.182,38.541,23.996,37.729,24.999,37.729z
	 M32.271,23.184c1.004,0,1.818,0.813,1.818,1.817v3.635c0,1.005-0.814,1.818-1.818,1.818s-1.817-0.813-1.817-1.818v-3.635
	C30.454,23.996,31.268,23.184,32.271,23.184z M32.271,34.091c1.004,0,1.818,0.814,1.818,1.818v3.636
	c0,1.005-0.814,1.818-1.818,1.818s-1.817-0.813-1.817-1.818v-3.636C30.454,34.904,31.268,34.091,32.271,34.091z"/>
</svg>
