<?xml version="1.0" encoding="utf-8"?>
<!-- Generator: Adobe Illustrator 16.0.0, SVG Export Plug-In . SVG Version: 6.00 Build 0)  -->
<!DOCTYPE svg PUBLIC "-//W3C//DTD SVG 1.1//EN" "http://www.w3.org/Graphics/SVG/1.1/DTD/svg11.dtd">
<svg version="1.1" id="Layer_1" xmlns="http://www.w3.org/2000/svg" xmlns:xlink="http://www.w3.org/1999/xlink" x="0px" y="0px"
	 width="50px" height="50px" viewBox="25 25 50 50" enable-background="new 25 25 50 50" xml:space="preserve">
<path fill="#231F20" d="M62.696,59.545c-0.062-1.275-0.309-2.497-0.719-3.647c2.573-1.117,4.386-3.653,4.386-6.636
	c0-4.017-3.255-7.274-7.271-7.274c-1.455,0-2.804,0.438-3.94,1.173c-1.118-4.833-5.431-8.445-10.605-8.445
	c-6.025,0-10.909,4.883-10.909,10.908c0,3.792,1.948,7.117,4.887,9.07c-0.535,1.118-0.908,2.326-1.098,3.598
	C32.999,55.798,30,51.067,30,45.624c0-8.032,6.513-14.545,14.546-14.545c5.459,0,10.209,3.011,12.697,7.459
	c0.604-0.104,1.215-0.187,1.849-0.187C65.117,38.351,70,43.235,70,49.262C70,54.021,66.947,58.055,62.696,59.545z M50.001,50.737
	v0.018h2.713l-2.025-2.026c-0.71-0.71-0.71-1.861,0-2.572c0.708-0.709,1.861-0.709,2.569,0l5.143,5.143
	c0.71,0.71,0.71,1.861,0,2.571l-5.143,5.143c-0.708,0.709-1.861,0.709-2.569,0c-0.71-0.71-0.71-1.862,0-2.571l2.053-2.053H50l0,0
	c-3.013,0-5.455,2.441-5.455,5.455c0,3.01,2.442,5.453,5.455,5.453c3.011,0,5.453-2.443,5.453-5.453
	c0-0.142-0.029-0.275-0.041-0.412l3.012-3.012c0.427,1.053,0.666,2.202,0.666,3.408c0,5.021-4.07,9.092-9.09,9.092
	c-5.021,0-9.092-4.07-9.092-9.092C40.911,54.809,44.98,50.737,50.001,50.737z"/>
</svg>
